#N canvas 206 157 1248 876 10;
#X obj 84 67 + 4;
#X obj 172 171 + 4;
#X floatatom 46 269 5 0 0 0 - - -;
#X floatatom 82 270 5 0 0 0 - - -;
#X floatatom 153 270 5 0 0 0 - - -;
#X floatatom 117 270 5 0 0 0 - - -;
#X floatatom 189 271 5 0 0 0 - - -;
#X floatatom 225 272 5 0 0 0 - - -;
#X floatatom 261 273 5 0 0 0 - - -;
#X obj 147 136 + 3;
#X obj 46 295 mtof;
#X obj 81 295 mtof;
#X obj 116 294 mtof;
#X obj 154 297 mtof;
#X obj 189 298 mtof;
#X obj 224 297 mtof;
#X obj 261 298 mtof;
#X obj 45 321 osc~;
#X obj 82 321 osc~;
#X obj 116 321 osc~;
#X obj 151 322 osc~;
#X obj 188 322 osc~;
#X obj 224 322 osc~;
#X obj 260 322 osc~;
#X obj 156 416 *~ 0.3;
#X obj 115 105 + 3;
#X obj 259 237 + 4, f 4;
#X obj 220 210 + 3;
#X obj 222 239 + 0;
#X msg 279 6 1;
#X msg 311 6 0;
#X obj 282 502 osc~;
#X obj 319 502 osc~;
#X obj 353 502 osc~;
#X obj 388 503 osc~;
#X obj 425 503 osc~;
#X obj 461 503 osc~;
#X obj 497 503 osc~;
#X obj 644 524 osc~;
#X obj 681 524 osc~;
#X obj 715 524 osc~;
#X obj 750 525 osc~;
#X obj 787 525 osc~;
#X obj 823 525 osc~;
#X obj 859 525 osc~;
#X obj 282 476 * 2;
#X obj 320 476 * 2;
#X obj 356 477 * 2;
#X obj 394 477 * 2;
#X obj 429 475 * 2;
#X obj 467 475 * 2;
#X obj 503 476 * 2;
#X obj 644 492 * 3;
#X obj 680 493 * 3;
#X obj 716 493 * 3;
#X obj 752 494 * 3;
#X obj 785 493 * 3;
#X obj 821 494 * 3;
#X obj 857 494 * 3;
#X obj 736 598 *~ 0.025;
#X obj 345 570 *~ 0.03;
#X obj 376 814 dac~;
#X obj 977 289 bng 15 250 50 0 empty empty empty 17 7 0 10 -262144
-1 -1;
#X obj 937 175 bng 15 250 50 0 empty empty empty 17 7 0 10 -262144
-1 -1;
#X msg 53 32 60;
#X msg 514 720 bang;
#X msg 601 752 start;
#X msg 603 778 stop;
#X obj 592 844 writesf~ 2;
#X obj 514 751 del 5000;
#X obj 619 369 del 200;
#X msg 1016 490 0.01 4000;
#X msg 977 418 300 100;
#X obj 1069 412 del 100;
#X obj 1006 546 line~;
#X obj 1006 578 *~ 0.001;
#X obj 393 713 *~;
#X msg 603 695 open /Users/rb/foo2.wav;
#X obj 242 719 vu 15 120 empty empty -1 -8 0 10 -66577 -1 1 0;
#X obj 242 662 env~;
#X obj 244 686 - 100;
#X connect 0 0 3 0;
#X connect 0 0 25 0;
#X connect 1 0 6 0;
#X connect 1 0 27 0;
#X connect 2 0 10 0;
#X connect 3 0 11 0;
#X connect 4 0 13 0;
#X connect 5 0 12 0;
#X connect 6 0 14 0;
#X connect 7 0 15 0;
#X connect 8 0 16 0;
#X connect 9 0 1 0;
#X connect 9 0 4 0;
#X connect 10 0 17 0;
#X connect 10 0 45 0;
#X connect 10 0 52 0;
#X connect 11 0 18 0;
#X connect 11 0 53 0;
#X connect 11 0 46 0;
#X connect 12 0 19 0;
#X connect 12 0 47 0;
#X connect 12 0 54 0;
#X connect 13 0 20 0;
#X connect 13 0 55 0;
#X connect 13 0 48 0;
#X connect 14 0 21 0;
#X connect 14 0 49 0;
#X connect 14 0 56 0;
#X connect 15 0 22 0;
#X connect 15 0 50 0;
#X connect 15 0 57 0;
#X connect 16 0 23 0;
#X connect 16 0 51 0;
#X connect 16 0 58 0;
#X connect 17 0 24 0;
#X connect 18 0 24 0;
#X connect 19 0 24 0;
#X connect 20 0 24 0;
#X connect 21 0 24 0;
#X connect 22 0 24 0;
#X connect 23 0 24 0;
#X connect 24 0 76 0;
#X connect 25 0 5 0;
#X connect 25 0 9 0;
#X connect 26 0 8 0;
#X connect 27 0 26 0;
#X connect 27 0 28 0;
#X connect 28 0 7 0;
#X connect 29 0 28 1;
#X connect 29 0 64 0;
#X connect 30 0 28 1;
#X connect 30 0 64 0;
#X connect 31 0 60 0;
#X connect 32 0 60 0;
#X connect 33 0 60 0;
#X connect 34 0 60 0;
#X connect 35 0 60 0;
#X connect 36 0 60 0;
#X connect 37 0 60 0;
#X connect 38 0 59 0;
#X connect 39 0 59 0;
#X connect 40 0 59 0;
#X connect 41 0 59 0;
#X connect 42 0 59 0;
#X connect 43 0 59 0;
#X connect 44 0 59 0;
#X connect 45 0 31 0;
#X connect 46 0 32 0;
#X connect 47 0 33 0;
#X connect 48 0 34 0;
#X connect 49 0 35 0;
#X connect 50 0 36 0;
#X connect 51 0 37 0;
#X connect 52 0 38 0;
#X connect 53 0 39 0;
#X connect 54 0 40 0;
#X connect 55 0 41 0;
#X connect 56 0 42 0;
#X connect 57 0 43 0;
#X connect 58 0 44 0;
#X connect 59 0 76 0;
#X connect 60 0 76 0;
#X connect 62 0 72 0;
#X connect 62 0 29 0;
#X connect 62 0 73 0;
#X connect 63 0 30 0;
#X connect 63 0 72 0;
#X connect 63 0 73 0;
#X connect 64 0 0 0;
#X connect 64 0 2 0;
#X connect 65 0 66 0;
#X connect 65 0 69 0;
#X connect 65 0 70 0;
#X connect 66 0 68 0;
#X connect 67 0 68 0;
#X connect 69 0 67 0;
#X connect 70 0 62 0;
#X connect 71 0 74 0;
#X connect 72 0 74 0;
#X connect 73 0 71 0;
#X connect 74 0 75 0;
#X connect 75 0 76 1;
#X connect 76 0 61 0;
#X connect 76 0 61 1;
#X connect 76 0 68 0;
#X connect 76 0 79 0;
#X connect 77 0 68 0;
#X connect 79 0 80 0;
#X connect 80 0 78 0;
