#N canvas 565 200 1234 796 10;
#X obj 648 682 Gem;
#X msg 1170 480 destroy;
#X obj 598 361 rotateXYZ;
#X obj 570 304 colorRGB;
#X obj 740 153 random 360;
#X obj 644 146 random 360;
#X obj 828 152 random 360;
#X obj 616 215 / 360;
#X obj 661 214 / 360;
#X obj 702 214 / 360;
#X obj 574 562 light;
#X msg 1147 404 lighting 0;
#X msg 1103 368 lighting 1;
#X obj 719 21 loadbang;
#X obj 720 282 line 5;
#X obj 776 283 line 5;
#X obj 829 284 line 5;
#X obj 325 310 random 1000;
#X obj 327 338 / 1000;
#X obj 406 313 random 1000;
#X obj 410 343 / 1000;
#X obj 482 313 random 1000;
#X obj 484 341 / 1000;
#X obj 661 80 metro 3000;
#X obj 769 79 delay 1000;
#X obj 859 81 delay 1000;
#X msg 716 245 \$1 2000;
#X msg 772 247 \$1 2000;
#X msg 825 247 \$1 2000;
#X obj 484 270 delay 5000;
#X obj 413 270 delay 5000;
#X obj 326 272 delay 5000;
#X obj 460 502 light;
#X obj 827 337 random 1000;
#X obj 836 368 / 1000;
#X obj 908 340 random 1000;
#X obj 911 370 / 1000;
#X obj 984 340 random 1000;
#X obj 986 368 / 1000;
#X obj 388 390 pack f f f;
#X obj 875 421 pack f f f;
#X msg 154 126 seed 7836;
#X msg 228 141 seed 736;
#X msg 306 154 seed 62563;
#X msg 1058 252 seed 134;
#X msg 992 253 seed 246;
#X msg 917 259 seed 244;
#X msg 874 112 seed 2345;
#X msg 797 117 seed 113;
#X msg 697 114 seed 6788;
#X obj 456 457 translateXYZ -20 10 20;
#X obj 636 557 translateXYZ 0 0 0;
#X obj 661 508 * 2;
#X obj 692 510 * 2;
#X obj 726 510 * 2;
#X obj 648 479 line 5;
#X obj 704 480 line 5;
#X obj 757 481 line 5;
#X msg 644 442 \$1 2000;
#X msg 700 444 \$1 2000;
#X msg 753 444 \$1 2000;
#X obj 1075 333 delay 1000;
#X obj 682 58 tgl 15 0 empty empty empty 17 7 0 10 -262144 -1 -1 1
1;
#N canvas 438 192 1161 773 win2 1;
#X obj 648 682 Gem;
#X obj 598 361 rotateXYZ;
#X obj 570 304 colorRGB;
#X obj 740 153 random 360;
#X obj 644 146 random 360;
#X obj 828 152 random 360;
#X obj 616 215 / 360;
#X obj 661 214 / 360;
#X obj 702 214 / 360;
#X obj 574 562 light;
#X obj 719 21 loadbang;
#X obj 720 282 line 5;
#X obj 776 283 line 5;
#X obj 829 284 line 5;
#X obj 325 310 random 1000;
#X obj 327 338 / 1000;
#X obj 406 313 random 1000;
#X obj 410 343 / 1000;
#X obj 482 313 random 1000;
#X obj 484 341 / 1000;
#X obj 661 80 metro 3000;
#X obj 769 79 delay 1000;
#X obj 859 81 delay 1000;
#X msg 716 245 \$1 2000;
#X msg 772 247 \$1 2000;
#X msg 825 247 \$1 2000;
#X obj 484 270 delay 5000;
#X obj 413 270 delay 5000;
#X obj 326 272 delay 5000;
#X obj 460 502 light;
#X obj 827 337 random 1000;
#X obj 836 368 / 1000;
#X obj 908 340 random 1000;
#X obj 911 370 / 1000;
#X obj 984 340 random 1000;
#X obj 986 368 / 1000;
#X obj 388 390 pack f f f;
#X obj 875 421 pack f f f;
#X obj 456 457 translateXYZ -20 10 20;
#X obj 633 537 translateXYZ 0 0 0;
#X obj 661 508 * 2;
#X obj 692 510 * 2;
#X obj 726 510 * 2;
#X obj 648 479 line 5;
#X obj 704 480 line 5;
#X obj 757 481 line 5;
#X msg 644 442 \$1 2000;
#X msg 700 444 \$1 2000;
#X msg 753 444 \$1 2000;
#X obj 682 58 tgl 15 0 empty empty empty 17 7 0 10 -262144 -1 -1 1
1;
#X obj 638 574 scale 1;
#X msg 917 259 seed 5677;
#X msg 992 253 seed 444;
#X msg 1058 252 seed 26778;
#X msg 874 112 seed 3445;
#X msg 797 117 seed 3444;
#X msg 697 114 seed 3245;
#X msg 306 154 seed 3566;
#X msg 228 141 seed 1212;
#X msg 154 126 seed 9876;
#X obj 546 96 gemhead 75;
#X obj 658 656 cube;
#X obj 648 604 pix_image steel1.jpg;
#X obj 665 630 pix_texture;
#X connect 1 0 39 0;
#X connect 2 0 1 0;
#X connect 3 0 24 0;
#X connect 3 0 7 0;
#X connect 4 0 23 0;
#X connect 4 0 6 0;
#X connect 5 0 25 0;
#X connect 5 0 8 0;
#X connect 6 0 2 1;
#X connect 7 0 2 2;
#X connect 8 0 2 3;
#X connect 9 0 0 0;
#X connect 10 0 49 0;
#X connect 10 0 57 0;
#X connect 10 0 58 0;
#X connect 10 0 59 0;
#X connect 10 0 56 0;
#X connect 10 0 55 0;
#X connect 10 0 54 0;
#X connect 10 0 51 0;
#X connect 10 0 52 0;
#X connect 10 0 53 0;
#X connect 11 0 1 1;
#X connect 12 0 1 2;
#X connect 13 0 1 3;
#X connect 14 0 15 0;
#X connect 15 0 36 0;
#X connect 16 0 17 0;
#X connect 17 0 36 1;
#X connect 18 0 19 0;
#X connect 19 0 36 2;
#X connect 20 0 21 0;
#X connect 20 0 4 0;
#X connect 20 0 34 0;
#X connect 20 0 28 0;
#X connect 21 0 22 0;
#X connect 21 0 3 0;
#X connect 21 0 32 0;
#X connect 21 0 26 0;
#X connect 22 0 5 0;
#X connect 22 0 30 0;
#X connect 22 0 27 0;
#X connect 23 0 11 0;
#X connect 24 0 12 0;
#X connect 25 0 13 0;
#X connect 26 0 18 0;
#X connect 27 0 16 0;
#X connect 28 0 14 0;
#X connect 29 0 0 0;
#X connect 30 0 31 0;
#X connect 31 0 37 0;
#X connect 31 0 48 0;
#X connect 32 0 33 0;
#X connect 33 0 37 1;
#X connect 33 0 47 0;
#X connect 34 0 35 0;
#X connect 35 0 37 2;
#X connect 35 0 46 0;
#X connect 36 0 29 0;
#X connect 37 0 9 0;
#X connect 38 0 9 0;
#X connect 39 0 50 0;
#X connect 40 0 39 1;
#X connect 41 0 39 2;
#X connect 42 0 39 3;
#X connect 43 0 40 0;
#X connect 44 0 41 0;
#X connect 45 0 42 0;
#X connect 46 0 43 0;
#X connect 47 0 44 0;
#X connect 48 0 45 0;
#X connect 49 0 20 0;
#X connect 50 0 62 0;
#X connect 51 0 30 0;
#X connect 52 0 32 0;
#X connect 53 0 34 0;
#X connect 54 0 5 0;
#X connect 55 0 3 0;
#X connect 56 0 4 0;
#X connect 57 0 18 0;
#X connect 58 0 16 0;
#X connect 59 0 14 0;
#X connect 60 0 2 0;
#X connect 60 0 38 0;
#X connect 60 0 29 0;
#X connect 61 0 0 0;
#X connect 62 0 63 0;
#X connect 63 0 61 0;
#X restore 893 521 pd win2;
#N canvas 638 248 1146 609 win3 0;
#X obj 648 682 Gem;
#X obj 598 361 rotateXYZ;
#X obj 570 304 colorRGB;
#X obj 740 153 random 360;
#X obj 644 146 random 360;
#X obj 828 152 random 360;
#X obj 616 215 / 360;
#X obj 661 214 / 360;
#X obj 702 214 / 360;
#X obj 574 562 light;
#X obj 719 21 loadbang;
#X obj 720 282 line 5;
#X obj 776 283 line 5;
#X obj 829 284 line 5;
#X obj 325 310 random 1000;
#X obj 327 338 / 1000;
#X obj 406 313 random 1000;
#X obj 410 343 / 1000;
#X obj 482 313 random 1000;
#X obj 484 341 / 1000;
#X obj 661 80 metro 3000;
#X obj 769 79 delay 1000;
#X obj 859 81 delay 1000;
#X msg 716 245 \$1 2000;
#X msg 772 247 \$1 2000;
#X msg 825 247 \$1 2000;
#X obj 484 270 delay 5000;
#X obj 413 270 delay 5000;
#X obj 326 272 delay 5000;
#X obj 460 502 light;
#X obj 827 337 random 1000;
#X obj 836 368 / 1000;
#X obj 908 340 random 1000;
#X obj 911 370 / 1000;
#X obj 984 340 random 1000;
#X obj 986 368 / 1000;
#X obj 388 390 pack f f f;
#X obj 875 421 pack f f f;
#X obj 456 457 translateXYZ -20 10 20;
#X obj 633 537 translateXYZ 0 0 0;
#X obj 661 508 * 2;
#X obj 692 510 * 2;
#X obj 726 510 * 2;
#X obj 648 479 line 5;
#X obj 704 480 line 5;
#X obj 757 481 line 5;
#X msg 644 442 \$1 2000;
#X msg 700 444 \$1 2000;
#X msg 753 444 \$1 2000;
#X obj 682 58 tgl 15 0 empty empty empty 17 7 0 10 -262144 -1 -1 1
1;
#X obj 638 574 scale 1;
#X msg 697 114 seed 345;
#X msg 797 117 seed 3456;
#X msg 874 112 seed 1235;
#X msg 306 154 seed 8976;
#X msg 228 141 seed 436;
#X msg 154 126 seed 78336;
#X msg 917 259 seed 312;
#X msg 992 253 seed 555;
#X msg 1058 252 seed 2666;
#X obj 546 96 gemhead 100;
#X obj 636 604 pix_image steel1.jpg;
#X obj 653 630 pix_texture;
#X obj 650 661 cube 0.666;
#X connect 1 0 39 0;
#X connect 2 0 1 0;
#X connect 3 0 24 0;
#X connect 3 0 7 0;
#X connect 4 0 23 0;
#X connect 4 0 6 0;
#X connect 5 0 25 0;
#X connect 5 0 8 0;
#X connect 6 0 2 1;
#X connect 7 0 2 2;
#X connect 8 0 2 3;
#X connect 9 0 0 0;
#X connect 10 0 49 0;
#X connect 10 0 54 0;
#X connect 10 0 55 0;
#X connect 10 0 56 0;
#X connect 10 0 51 0;
#X connect 10 0 52 0;
#X connect 10 0 53 0;
#X connect 10 0 57 0;
#X connect 10 0 58 0;
#X connect 10 0 59 0;
#X connect 11 0 1 1;
#X connect 12 0 1 2;
#X connect 13 0 1 3;
#X connect 14 0 15 0;
#X connect 15 0 36 0;
#X connect 16 0 17 0;
#X connect 17 0 36 1;
#X connect 18 0 19 0;
#X connect 19 0 36 2;
#X connect 20 0 21 0;
#X connect 20 0 4 0;
#X connect 20 0 34 0;
#X connect 20 0 26 0;
#X connect 21 0 22 0;
#X connect 21 0 3 0;
#X connect 21 0 32 0;
#X connect 21 0 27 0;
#X connect 22 0 5 0;
#X connect 22 0 30 0;
#X connect 22 0 28 0;
#X connect 23 0 11 0;
#X connect 24 0 12 0;
#X connect 25 0 13 0;
#X connect 26 0 18 0;
#X connect 27 0 16 0;
#X connect 28 0 14 0;
#X connect 29 0 0 0;
#X connect 30 0 31 0;
#X connect 31 0 37 0;
#X connect 31 0 48 0;
#X connect 32 0 33 0;
#X connect 33 0 37 1;
#X connect 33 0 47 0;
#X connect 34 0 35 0;
#X connect 35 0 37 2;
#X connect 35 0 46 0;
#X connect 36 0 29 0;
#X connect 37 0 9 0;
#X connect 38 0 9 0;
#X connect 39 0 50 0;
#X connect 40 0 39 1;
#X connect 41 0 39 2;
#X connect 42 0 39 3;
#X connect 43 0 40 0;
#X connect 44 0 41 0;
#X connect 45 0 42 0;
#X connect 46 0 43 0;
#X connect 47 0 44 0;
#X connect 48 0 45 0;
#X connect 49 0 20 0;
#X connect 50 0 61 0;
#X connect 51 0 4 0;
#X connect 52 0 3 0;
#X connect 53 0 5 0;
#X connect 54 0 18 0;
#X connect 55 0 16 0;
#X connect 56 0 14 0;
#X connect 57 0 30 0;
#X connect 58 0 32 0;
#X connect 59 0 34 0;
#X connect 60 0 2 0;
#X connect 60 0 38 0;
#X connect 60 0 29 0;
#X connect 61 0 62 0;
#X connect 62 0 63 0;
#X connect 63 0 0 0;
#X restore 905 568 pd win3;
#X obj 1145 512 gemwin 40;
#X obj 546 96 gemhead 50;
#X msg 1015 462 reset \, dimen 500 500 \, create \, 1;
#X obj 638 575 scale 1;
#X obj 640 600 pix_image steel1.jpg;
#X obj 657 626 pix_texture;
#X obj 662 531 - 1;
#X obj 698 531 - 1;
#X obj 729 532 - 1;
#X obj 651 651 cube 0.9;
#X obj 242 571 camera;
#X obj 133 450 gemhead 25;
#X obj 243 486 rotateXYZ;
#X connect 1 0 65 0;
#X connect 2 0 51 0;
#X connect 3 0 2 0;
#X connect 4 0 27 0;
#X connect 4 0 8 0;
#X connect 5 0 26 0;
#X connect 5 0 7 0;
#X connect 6 0 28 0;
#X connect 6 0 9 0;
#X connect 7 0 3 1;
#X connect 8 0 3 2;
#X connect 9 0 3 3;
#X connect 10 0 0 0;
#X connect 11 0 65 0;
#X connect 12 0 65 0;
#X connect 13 0 62 0;
#X connect 13 0 61 0;
#X connect 13 0 43 0;
#X connect 13 0 42 0;
#X connect 13 0 41 0;
#X connect 13 0 49 0;
#X connect 13 0 48 0;
#X connect 13 0 47 0;
#X connect 13 0 46 0;
#X connect 13 0 45 0;
#X connect 13 0 44 0;
#X connect 14 0 2 1;
#X connect 14 0 77 1;
#X connect 15 0 2 2;
#X connect 15 0 77 3;
#X connect 16 0 2 3;
#X connect 16 0 77 2;
#X connect 17 0 18 0;
#X connect 18 0 39 0;
#X connect 19 0 20 0;
#X connect 20 0 39 1;
#X connect 21 0 22 0;
#X connect 22 0 39 2;
#X connect 23 0 24 0;
#X connect 23 0 5 0;
#X connect 23 0 37 0;
#X connect 23 0 31 0;
#X connect 24 0 25 0;
#X connect 24 0 4 0;
#X connect 24 0 35 0;
#X connect 24 0 30 0;
#X connect 25 0 6 0;
#X connect 25 0 33 0;
#X connect 25 0 29 0;
#X connect 26 0 14 0;
#X connect 27 0 15 0;
#X connect 28 0 16 0;
#X connect 29 0 21 0;
#X connect 30 0 19 0;
#X connect 31 0 17 0;
#X connect 32 0 0 0;
#X connect 33 0 34 0;
#X connect 34 0 40 0;
#X connect 34 0 60 0;
#X connect 35 0 36 0;
#X connect 36 0 40 1;
#X connect 36 0 59 0;
#X connect 37 0 38 0;
#X connect 38 0 40 2;
#X connect 38 0 58 0;
#X connect 39 0 32 0;
#X connect 40 0 10 0;
#X connect 41 0 17 0;
#X connect 42 0 19 0;
#X connect 43 0 21 0;
#X connect 44 0 37 0;
#X connect 45 0 35 0;
#X connect 46 0 33 0;
#X connect 47 0 6 0;
#X connect 48 0 4 0;
#X connect 49 0 5 0;
#X connect 50 0 10 0;
#X connect 51 0 68 0;
#X connect 52 0 71 0;
#X connect 53 0 72 0;
#X connect 54 0 73 0;
#X connect 55 0 52 0;
#X connect 56 0 53 0;
#X connect 57 0 54 0;
#X connect 58 0 55 0;
#X connect 59 0 56 0;
#X connect 60 0 57 0;
#X connect 61 0 12 0;
#X connect 61 0 67 0;
#X connect 62 0 23 0;
#X connect 66 0 3 0;
#X connect 66 0 50 0;
#X connect 66 0 32 0;
#X connect 67 0 65 0;
#X connect 68 0 69 0;
#X connect 69 0 70 0;
#X connect 70 0 74 0;
#X connect 71 0 51 1;
#X connect 72 0 51 2;
#X connect 73 0 51 3;
#X connect 74 0 0 0;
#X connect 75 0 0 0;
#X connect 76 0 77 0;
#X connect 77 0 75 0;
