#N canvas 254 209 1047 762 10;
#N canvas 0 122 1920 899 setone 0;
#X obj 324 292 phasor~ 150;
#X obj 336 333 -~ 0.5;
#X obj 335 365 abs~;
#X obj 339 408 *~ 4;
#X obj 346 445 -~ 1;
#X obj 235 217 line~ 0 1 10000;
#X obj 204 149 bng 15 250 50 0 empty empty empty 17 7 0 10 -262144
-1 -1;
#X msg 232 179 0 80000;
#X msg 309 161 120 40000;
#X obj 234 286 phasor~ 150;
#X obj 246 327 -~ 0.5;
#X obj 245 359 abs~;
#X obj 249 402 *~ 4;
#X obj 256 439 -~ 1;
#X obj 318 244 *~ 2;
#X obj 536 269 phasor~ 150;
#X obj 548 310 -~ 0.5;
#X obj 547 342 abs~;
#X obj 551 385 *~ 4;
#X obj 558 422 -~ 1;
#X obj 447 194 line~ 0 1 10000;
#X obj 416 126 bng 15 250 50 0 empty empty empty 17 7 0 10 -262144
-1 -1;
#X msg 444 156 0 80000;
#X obj 446 263 phasor~ 150;
#X obj 458 304 -~ 0.5;
#X obj 457 336 abs~;
#X obj 461 379 *~ 4;
#X obj 468 416 -~ 1;
#X msg 520 139 150 40000;
#X obj 529 222 *~ 1.2;
#X obj 744 252 phasor~ 150;
#X obj 756 293 -~ 0.5;
#X obj 755 325 abs~;
#X obj 759 368 *~ 4;
#X obj 766 405 -~ 1;
#X obj 655 177 line~ 0 1 10000;
#X obj 624 109 bng 15 250 50 0 empty empty empty 17 7 0 10 -262144
-1 -1;
#X msg 652 139 0 80000;
#X obj 654 246 phasor~ 150;
#X obj 666 287 -~ 0.5;
#X obj 665 319 abs~;
#X obj 669 362 *~ 4;
#X obj 676 399 -~ 1;
#X obj 737 205 *~ 1.125;
#X msg 728 122 200 40000;
#X obj 941 261 phasor~ 150;
#X obj 953 302 -~ 0.5;
#X obj 952 334 abs~;
#X obj 956 377 *~ 4;
#X obj 963 414 -~ 1;
#X obj 852 186 line~ 0 1 10000;
#X obj 821 118 bng 15 250 50 0 empty empty empty 17 7 0 10 -262144
-1 -1;
#X msg 849 148 0 80000;
#X obj 851 255 phasor~ 150;
#X obj 863 296 -~ 0.5;
#X obj 862 328 abs~;
#X obj 866 371 *~ 4;
#X obj 873 408 -~ 1;
#X obj 934 214 *~ 1.25;
#X msg 925 131 300 40000;
#X obj 71 256 line~ 0 1 10000;
#X obj 40 188 bng 15 250 50 0 empty empty empty 17 7 0 10 -262144 -1
-1;
#X msg 68 218 0 80000;
#X obj 70 325 phasor~ 150;
#X obj 82 366 -~ 0.5;
#X obj 81 398 abs~;
#X obj 85 441 *~ 4;
#X obj 92 478 -~ 1;
#X msg 145 200 250 40000;
#X obj 75 542 earplug~ 0 0;
#X obj 245 500 earplug~ 45 0;
#X obj 474 472 earplug~ 90 0;
#X obj 681 471 earplug~ 180 0;
#X obj 928 498 earplug~ 270 0;
#X obj 87 676 *~ 1;
#X obj 256 571 *~ 1;
#X obj 484 553 *~ 1;
#X obj 683 562 *~ 1;
#X obj 941 563 *~ 1;
#X obj 129 667 *~ 1;
#X obj 298 561 *~ 1;
#X obj 543 561 *~ 1;
#X obj 725 552 *~ 1;
#X obj 983 553 *~ 1;
#X obj 154 603 hsl 128 15 0 127 0 0 empty empty empty -2 -8 0 10 -262144
-1 -1 2600 1;
#X obj 153 637 / 128;
#X obj 335 497 hsl 128 15 0 127 0 0 empty empty empty -2 -8 0 10 -262144
-1 -1 2600 1;
#X obj 334 531 / 128;
#X obj 495 494 hsl 128 15 0 127 0 0 empty empty empty -2 -8 0 10 -262144
-1 -1 2600 1;
#X obj 508 518 / 128;
#X obj 771 491 hsl 128 15 0 127 0 0 empty empty empty -2 -8 0 10 -262144
-1 -1 2600 1;
#X obj 769 525 / 128;
#X obj 1028 484 hsl 128 15 0 127 0 0 empty empty empty -2 -8 0 10 -262144
-1 -1 2600 1;
#X obj 1027 518 / 128;
#X obj 1426 212 phasor~ 150;
#X obj 1438 253 -~ 0.5;
#X obj 1437 285 abs~;
#X obj 1441 328 *~ 4;
#X obj 1448 365 -~ 1;
#X obj 1337 137 line~ 0 1 10000;
#X obj 1306 69 bng 15 250 50 0 empty empty empty 17 7 0 10 -262144
-1 -1;
#X msg 1334 99 0 80000;
#X obj 1336 206 phasor~ 150;
#X obj 1348 247 -~ 0.5;
#X obj 1347 279 abs~;
#X obj 1351 322 *~ 4;
#X obj 1358 359 -~ 1;
#X obj 1420 164 *~ 2;
#X obj 1638 189 phasor~ 150;
#X obj 1650 230 -~ 0.5;
#X obj 1649 262 abs~;
#X obj 1653 305 *~ 4;
#X obj 1660 342 -~ 1;
#X obj 1549 114 line~ 0 1 10000;
#X obj 1518 46 bng 15 250 50 0 empty empty empty 17 7 0 10 -262144
-1 -1;
#X msg 1546 76 0 80000;
#X obj 1548 183 phasor~ 150;
#X obj 1560 224 -~ 0.5;
#X obj 1559 256 abs~;
#X obj 1563 299 *~ 4;
#X obj 1570 336 -~ 1;
#X obj 1631 142 *~ 1.2;
#X obj 1846 172 phasor~ 150;
#X obj 1858 213 -~ 0.5;
#X obj 1857 245 abs~;
#X obj 1861 288 *~ 4;
#X obj 1868 325 -~ 1;
#X obj 1757 97 line~ 0 1 10000;
#X obj 1726 29 bng 15 250 50 0 empty empty empty 17 7 0 10 -262144
-1 -1;
#X msg 1754 59 0 80000;
#X obj 1756 166 phasor~ 150;
#X obj 1768 207 -~ 0.5;
#X obj 1767 239 abs~;
#X obj 1771 282 *~ 4;
#X obj 1778 319 -~ 1;
#X obj 1839 125 *~ 1.125;
#X obj 2043 181 phasor~ 150;
#X obj 2055 222 -~ 0.5;
#X obj 2054 254 abs~;
#X obj 2058 297 *~ 4;
#X obj 2065 334 -~ 1;
#X obj 1954 106 line~ 0 1 10000;
#X obj 1923 38 bng 15 250 50 0 empty empty empty 17 7 0 10 -262144
-1 -1;
#X msg 1951 68 0 80000;
#X obj 1953 175 phasor~ 150;
#X obj 1965 216 -~ 0.5;
#X obj 1964 248 abs~;
#X obj 1968 291 *~ 4;
#X obj 1975 328 -~ 1;
#X obj 2036 134 *~ 1.25;
#X obj 1173 176 line~ 0 1 10000;
#X obj 1142 108 bng 15 250 50 0 empty empty empty 17 7 0 10 -262144
-1 -1;
#X msg 1170 138 0 80000;
#X obj 1172 245 phasor~ 150;
#X obj 1184 286 -~ 0.5;
#X obj 1183 318 abs~;
#X obj 1187 361 *~ 4;
#X obj 1194 398 -~ 1;
#X obj 1189 596 *~ 1;
#X obj 1358 491 *~ 1;
#X obj 1586 473 *~ 1;
#X obj 1785 482 *~ 1;
#X obj 2043 483 *~ 1;
#X obj 1232 590 *~ 1;
#X obj 1400 481 *~ 1;
#X obj 1645 481 *~ 1;
#X obj 1827 472 *~ 1;
#X obj 2085 473 *~ 1;
#X obj 1256 523 hsl 128 15 0 127 0 0 empty empty empty -2 -8 0 10 -262144
-1 -1 2100 1;
#X obj 1255 557 / 128;
#X obj 1437 417 hsl 128 15 0 127 0 0 empty empty empty -2 -8 0 10 -262144
-1 -1 2100 1;
#X obj 1436 451 / 128;
#X obj 1597 414 hsl 128 15 0 127 0 0 empty empty empty -2 -8 0 10 -262144
-1 -1 2100 1;
#X obj 1610 438 / 128;
#X obj 1872 411 hsl 128 15 0 127 0 0 empty empty empty -2 -8 0 10 -262144
-1 -1 2100 1;
#X obj 1871 445 / 128;
#X obj 2130 404 hsl 128 15 0 127 0 0 empty empty empty -2 -8 0 10 -262144
-1 -1 2100 1;
#X obj 2129 438 / 128;
#X msg 1247 120 350 40000;
#X msg 1411 81 140 40000;
#X msg 1622 59 175 40000;
#X msg 1830 42 254 40000;
#X msg 2027 51 333 40000;
#X obj 1339 421 earplug~ 100 0;
#X obj 1176 463 earplug~ 15 0;
#X obj 1569 397 earplug~ 170 0;
#X obj 1783 391 earplug~ 200 0;
#X obj 2030 418 earplug~ 282 0;
#X obj 1228 859 outlet~;
#X obj 1291 859 outlet~;
#X obj 498 26 inlet;
#X obj 1716 -2 inlet;
#X obj 666 35 inlet;
#X obj 1345 3 inlet;
#X obj 814 68 inlet;
#X obj 1866 78 inlet;
#X connect 0 0 1 0;
#X connect 1 0 2 0;
#X connect 2 0 3 0;
#X connect 3 0 4 0;
#X connect 4 0 70 0;
#X connect 5 0 9 0;
#X connect 5 0 14 0;
#X connect 6 0 7 0;
#X connect 7 0 5 0;
#X connect 8 0 5 0;
#X connect 9 0 10 0;
#X connect 10 0 11 0;
#X connect 11 0 12 0;
#X connect 12 0 13 0;
#X connect 13 0 70 0;
#X connect 14 0 0 0;
#X connect 15 0 16 0;
#X connect 16 0 17 0;
#X connect 17 0 18 0;
#X connect 18 0 19 0;
#X connect 19 0 71 0;
#X connect 20 0 23 0;
#X connect 20 0 29 0;
#X connect 21 0 22 0;
#X connect 22 0 20 0;
#X connect 23 0 24 0;
#X connect 24 0 25 0;
#X connect 25 0 26 0;
#X connect 26 0 27 0;
#X connect 27 0 71 0;
#X connect 28 0 20 0;
#X connect 29 0 15 0;
#X connect 30 0 31 0;
#X connect 31 0 32 0;
#X connect 32 0 33 0;
#X connect 33 0 34 0;
#X connect 34 0 72 0;
#X connect 35 0 38 0;
#X connect 35 0 43 0;
#X connect 36 0 37 0;
#X connect 37 0 35 0;
#X connect 38 0 39 0;
#X connect 39 0 40 0;
#X connect 40 0 41 0;
#X connect 41 0 42 0;
#X connect 42 0 72 0;
#X connect 43 0 30 0;
#X connect 44 0 35 0;
#X connect 45 0 46 0;
#X connect 46 0 47 0;
#X connect 47 0 48 0;
#X connect 48 0 49 0;
#X connect 49 0 73 0;
#X connect 50 0 53 0;
#X connect 50 0 58 0;
#X connect 51 0 52 0;
#X connect 52 0 50 0;
#X connect 53 0 54 0;
#X connect 54 0 55 0;
#X connect 55 0 56 0;
#X connect 56 0 57 0;
#X connect 57 0 73 0;
#X connect 58 0 45 0;
#X connect 59 0 50 0;
#X connect 60 0 63 0;
#X connect 61 0 62 0;
#X connect 62 0 60 0;
#X connect 63 0 64 0;
#X connect 64 0 65 0;
#X connect 65 0 66 0;
#X connect 66 0 67 0;
#X connect 67 0 69 0;
#X connect 68 0 60 0;
#X connect 69 0 74 0;
#X connect 69 1 79 0;
#X connect 70 0 75 0;
#X connect 70 1 80 0;
#X connect 71 0 76 0;
#X connect 71 1 81 0;
#X connect 72 0 77 0;
#X connect 72 1 82 0;
#X connect 73 0 78 0;
#X connect 73 1 83 0;
#X connect 74 0 188 0;
#X connect 75 0 188 0;
#X connect 76 0 188 0;
#X connect 77 0 188 0;
#X connect 78 0 188 0;
#X connect 79 0 189 0;
#X connect 80 0 189 0;
#X connect 81 0 189 0;
#X connect 82 0 189 0;
#X connect 83 0 189 0;
#X connect 84 0 85 0;
#X connect 85 0 79 1;
#X connect 85 0 74 1;
#X connect 86 0 87 0;
#X connect 87 0 80 1;
#X connect 87 0 75 1;
#X connect 88 0 89 0;
#X connect 89 0 76 1;
#X connect 89 0 81 1;
#X connect 90 0 91 0;
#X connect 91 0 82 1;
#X connect 91 0 77 1;
#X connect 92 0 93 0;
#X connect 93 0 83 1;
#X connect 93 0 78 1;
#X connect 94 0 95 0;
#X connect 95 0 96 0;
#X connect 96 0 97 0;
#X connect 97 0 98 0;
#X connect 98 0 183 0;
#X connect 99 0 102 0;
#X connect 99 0 107 0;
#X connect 100 0 101 0;
#X connect 101 0 99 0;
#X connect 102 0 103 0;
#X connect 103 0 104 0;
#X connect 104 0 105 0;
#X connect 105 0 106 0;
#X connect 106 0 183 0;
#X connect 107 0 94 0;
#X connect 108 0 109 0;
#X connect 109 0 110 0;
#X connect 110 0 111 0;
#X connect 111 0 112 0;
#X connect 112 0 185 0;
#X connect 113 0 116 0;
#X connect 113 0 121 0;
#X connect 114 0 115 0;
#X connect 115 0 113 0;
#X connect 116 0 117 0;
#X connect 117 0 118 0;
#X connect 118 0 119 0;
#X connect 119 0 120 0;
#X connect 120 0 185 0;
#X connect 121 0 108 0;
#X connect 122 0 123 0;
#X connect 123 0 124 0;
#X connect 124 0 125 0;
#X connect 125 0 126 0;
#X connect 126 0 186 0;
#X connect 127 0 130 0;
#X connect 127 0 135 0;
#X connect 128 0 129 0;
#X connect 129 0 127 0;
#X connect 130 0 131 0;
#X connect 131 0 132 0;
#X connect 132 0 133 0;
#X connect 133 0 134 0;
#X connect 134 0 186 0;
#X connect 135 0 122 0;
#X connect 136 0 137 0;
#X connect 137 0 138 0;
#X connect 138 0 139 0;
#X connect 139 0 140 0;
#X connect 140 0 187 0;
#X connect 141 0 144 0;
#X connect 141 0 149 0;
#X connect 142 0 143 0;
#X connect 143 0 141 0;
#X connect 144 0 145 0;
#X connect 145 0 146 0;
#X connect 146 0 147 0;
#X connect 147 0 148 0;
#X connect 148 0 187 0;
#X connect 149 0 136 0;
#X connect 150 0 153 0;
#X connect 151 0 152 0;
#X connect 152 0 150 0;
#X connect 153 0 154 0;
#X connect 154 0 155 0;
#X connect 155 0 156 0;
#X connect 156 0 157 0;
#X connect 157 0 184 0;
#X connect 158 0 188 0;
#X connect 159 0 188 0;
#X connect 160 0 188 0;
#X connect 161 0 188 0;
#X connect 162 0 188 0;
#X connect 163 0 189 0;
#X connect 164 0 189 0;
#X connect 165 0 189 0;
#X connect 166 0 189 0;
#X connect 167 0 189 0;
#X connect 168 0 169 0;
#X connect 169 0 163 1;
#X connect 169 0 158 1;
#X connect 170 0 171 0;
#X connect 171 0 164 1;
#X connect 171 0 159 1;
#X connect 172 0 173 0;
#X connect 173 0 160 1;
#X connect 173 0 165 1;
#X connect 174 0 175 0;
#X connect 175 0 166 1;
#X connect 175 0 161 1;
#X connect 176 0 177 0;
#X connect 177 0 167 1;
#X connect 177 0 162 1;
#X connect 178 0 150 0;
#X connect 179 0 99 0;
#X connect 180 0 113 0;
#X connect 181 0 127 0;
#X connect 182 0 141 0;
#X connect 183 0 159 0;
#X connect 183 1 164 0;
#X connect 184 0 158 0;
#X connect 184 1 163 0;
#X connect 185 0 160 0;
#X connect 185 1 165 0;
#X connect 186 0 161 0;
#X connect 186 1 166 0;
#X connect 187 0 162 0;
#X connect 187 1 167 0;
#X connect 190 0 68 0;
#X connect 190 0 8 0;
#X connect 190 0 28 0;
#X connect 190 0 44 0;
#X connect 190 0 59 0;
#X connect 191 0 178 0;
#X connect 191 0 179 0;
#X connect 191 0 180 0;
#X connect 191 0 181 0;
#X connect 191 0 182 0;
#X connect 192 0 6 0;
#X connect 192 0 21 0;
#X connect 192 0 36 0;
#X connect 192 0 51 0;
#X connect 192 0 61 0;
#X connect 193 0 151 0;
#X connect 193 0 100 0;
#X connect 193 0 114 0;
#X connect 193 0 128 0;
#X connect 193 0 142 0;
#X connect 194 0 84 0;
#X connect 194 0 86 0;
#X connect 194 0 88 0;
#X connect 194 0 90 0;
#X connect 194 0 92 0;
#X connect 195 0 168 0;
#X connect 195 0 170 0;
#X connect 195 0 172 0;
#X connect 195 0 174 0;
#X connect 195 0 176 0;
#X restore 412 243 pd setone;
#X obj 377 176 bng 15 250 50 0 empty empty empty 17 7 0 10 -262144
-1 -1;
#X obj 394 199 bng 15 250 50 0 empty empty empty 17 7 0 10 -262144
-1 -1;
#X obj 456 196 bng 15 250 50 0 empty empty empty 17 7 0 10 -262144
-1 -1;
#X obj 446 174 bng 15 250 50 0 empty empty empty 17 7 0 10 -262144
-1 -1;
#N canvas 0 155 1920 899 settwo 0;
#X obj 324 292 phasor~ 150;
#X obj 336 333 -~ 0.5;
#X obj 335 365 abs~;
#X obj 339 408 *~ 4;
#X obj 346 445 -~ 1;
#X obj 235 217 line~ 0 1 10000;
#X obj 204 149 bng 15 250 50 0 empty empty empty 17 7 0 10 -262144
-1 -1;
#X msg 232 179 0 80000;
#X obj 234 286 phasor~ 150;
#X obj 246 327 -~ 0.5;
#X obj 245 359 abs~;
#X obj 249 402 *~ 4;
#X obj 256 439 -~ 1;
#X obj 318 244 *~ 2;
#X obj 536 269 phasor~ 150;
#X obj 548 310 -~ 0.5;
#X obj 547 342 abs~;
#X obj 551 385 *~ 4;
#X obj 558 422 -~ 1;
#X obj 447 194 line~ 0 1 10000;
#X obj 416 126 bng 15 250 50 0 empty empty empty 17 7 0 10 -262144
-1 -1;
#X msg 444 156 0 80000;
#X obj 446 263 phasor~ 150;
#X obj 458 304 -~ 0.5;
#X obj 457 336 abs~;
#X obj 461 379 *~ 4;
#X obj 468 416 -~ 1;
#X obj 529 222 *~ 1.2;
#X obj 744 252 phasor~ 150;
#X obj 756 293 -~ 0.5;
#X obj 755 325 abs~;
#X obj 759 368 *~ 4;
#X obj 766 405 -~ 1;
#X obj 655 177 line~ 0 1 10000;
#X obj 624 109 bng 15 250 50 0 empty empty empty 17 7 0 10 -262144
-1 -1;
#X msg 652 139 0 80000;
#X obj 654 246 phasor~ 150;
#X obj 666 287 -~ 0.5;
#X obj 665 319 abs~;
#X obj 669 362 *~ 4;
#X obj 676 399 -~ 1;
#X obj 737 205 *~ 1.125;
#X obj 941 261 phasor~ 150;
#X obj 953 302 -~ 0.5;
#X obj 952 334 abs~;
#X obj 956 377 *~ 4;
#X obj 963 414 -~ 1;
#X obj 852 186 line~ 0 1 10000;
#X obj 821 118 bng 15 250 50 0 empty empty empty 17 7 0 10 -262144
-1 -1;
#X msg 849 148 0 80000;
#X obj 851 255 phasor~ 150;
#X obj 863 296 -~ 0.5;
#X obj 862 328 abs~;
#X obj 866 371 *~ 4;
#X obj 873 408 -~ 1;
#X obj 934 214 *~ 1.25;
#X obj 71 256 line~ 0 1 10000;
#X obj 40 188 bng 15 250 50 0 empty empty empty 17 7 0 10 -262144 -1
-1;
#X msg 68 218 0 80000;
#X obj 70 325 phasor~ 150;
#X obj 82 366 -~ 0.5;
#X obj 81 398 abs~;
#X obj 85 441 *~ 4;
#X obj 92 478 -~ 1;
#X obj 928 498 earplug~ 270 0;
#X obj 87 676 *~ 1;
#X obj 256 571 *~ 1;
#X obj 484 553 *~ 1;
#X obj 683 562 *~ 1;
#X obj 941 563 *~ 1;
#X obj 129 667 *~ 1;
#X obj 298 561 *~ 1;
#X obj 543 561 *~ 1;
#X obj 725 552 *~ 1;
#X obj 983 553 *~ 1;
#X obj 154 603 hsl 128 15 0 127 0 0 empty empty empty -2 -8 0 10 -262144
-1 -1 2000 1;
#X obj 153 637 / 128;
#X obj 335 497 hsl 128 15 0 127 0 0 empty empty empty -2 -8 0 10 -262144
-1 -1 2000 1;
#X obj 334 531 / 128;
#X obj 495 494 hsl 128 15 0 127 0 0 empty empty empty -2 -8 0 10 -262144
-1 -1 2000 1;
#X obj 508 518 / 128;
#X obj 771 491 hsl 128 15 0 127 0 0 empty empty empty -2 -8 0 10 -262144
-1 -1 2000 1;
#X obj 769 525 / 128;
#X obj 1028 484 hsl 128 15 0 127 0 0 empty empty empty -2 -8 0 10 -262144
-1 -1 2000 1;
#X obj 1027 518 / 128;
#X obj 1426 212 phasor~ 150;
#X obj 1438 253 -~ 0.5;
#X obj 1437 285 abs~;
#X obj 1441 328 *~ 4;
#X obj 1448 365 -~ 1;
#X obj 1337 137 line~ 0 1 10000;
#X obj 1306 69 bng 15 250 50 0 empty empty empty 17 7 0 10 -262144
-1 -1;
#X msg 1334 99 0 80000;
#X obj 1336 206 phasor~ 150;
#X obj 1348 247 -~ 0.5;
#X obj 1347 279 abs~;
#X obj 1351 322 *~ 4;
#X obj 1358 359 -~ 1;
#X obj 1420 164 *~ 2;
#X obj 1638 189 phasor~ 150;
#X obj 1650 230 -~ 0.5;
#X obj 1649 262 abs~;
#X obj 1653 305 *~ 4;
#X obj 1660 342 -~ 1;
#X obj 1549 114 line~ 0 1 10000;
#X obj 1518 46 bng 15 250 50 0 empty empty empty 17 7 0 10 -262144
-1 -1;
#X msg 1546 76 0 80000;
#X obj 1548 183 phasor~ 150;
#X obj 1560 224 -~ 0.5;
#X obj 1559 256 abs~;
#X obj 1563 299 *~ 4;
#X obj 1570 336 -~ 1;
#X obj 1631 142 *~ 1.2;
#X obj 1846 172 phasor~ 150;
#X obj 1858 213 -~ 0.5;
#X obj 1857 245 abs~;
#X obj 1861 288 *~ 4;
#X obj 1868 325 -~ 1;
#X obj 1757 97 line~ 0 1 10000;
#X obj 1726 29 bng 15 250 50 0 empty empty empty 17 7 0 10 -262144
-1 -1;
#X msg 1754 59 0 80000;
#X obj 1756 166 phasor~ 150;
#X obj 1768 207 -~ 0.5;
#X obj 1767 239 abs~;
#X obj 1771 282 *~ 4;
#X obj 1778 319 -~ 1;
#X obj 1839 125 *~ 1.125;
#X obj 2043 181 phasor~ 150;
#X obj 2055 222 -~ 0.5;
#X obj 2054 254 abs~;
#X obj 2058 297 *~ 4;
#X obj 2065 334 -~ 1;
#X obj 1954 106 line~ 0 1 10000;
#X obj 1923 38 bng 15 250 50 0 empty empty empty 17 7 0 10 -262144
-1 -1;
#X msg 1951 68 0 80000;
#X obj 1953 175 phasor~ 150;
#X obj 1965 216 -~ 0.5;
#X obj 1964 248 abs~;
#X obj 1968 291 *~ 4;
#X obj 1975 328 -~ 1;
#X obj 2036 134 *~ 1.25;
#X obj 1173 176 line~ 0 1 10000;
#X obj 1142 108 bng 15 250 50 0 empty empty empty 17 7 0 10 -262144
-1 -1;
#X msg 1170 138 0 80000;
#X obj 1172 245 phasor~ 150;
#X obj 1184 286 -~ 0.5;
#X obj 1183 318 abs~;
#X obj 1187 361 *~ 4;
#X obj 1194 398 -~ 1;
#X obj 1189 596 *~ 1;
#X obj 1358 491 *~ 1;
#X obj 1586 473 *~ 1;
#X obj 1785 482 *~ 1;
#X obj 2043 483 *~ 1;
#X obj 1232 590 *~ 1;
#X obj 1400 481 *~ 1;
#X obj 1645 481 *~ 1;
#X obj 1827 472 *~ 1;
#X obj 2085 473 *~ 1;
#X obj 1256 523 hsl 128 15 0 127 0 0 empty empty empty -2 -8 0 10 -262144
-1 -1 2600 1;
#X obj 1255 557 / 128;
#X obj 1437 417 hsl 128 15 0 127 0 0 empty empty empty -2 -8 0 10 -262144
-1 -1 2600 1;
#X obj 1436 451 / 128;
#X obj 1597 414 hsl 128 15 0 127 0 0 empty empty empty -2 -8 0 10 -262144
-1 -1 2600 1;
#X obj 1610 438 / 128;
#X obj 1872 411 hsl 128 15 0 127 0 0 empty empty empty -2 -8 0 10 -262144
-1 -1 2600 1;
#X obj 1871 445 / 128;
#X obj 2130 404 hsl 128 15 0 127 0 0 empty empty empty -2 -8 0 10 -262144
-1 -1 2600 1;
#X obj 2129 438 / 128;
#X msg 1411 81 140 40000;
#X obj 1339 421 earplug~ 100 0;
#X obj 1228 859 outlet~;
#X obj 1291 859 outlet~;
#X obj 498 26 inlet;
#X obj 1716 -2 inlet;
#X obj 666 35 inlet;
#X obj 1345 3 inlet;
#X obj 75 542 earplug~ 345 0;
#X obj 245 500 earplug~ 40 0;
#X msg 145 200 245 40000;
#X msg 309 161 320 40000;
#X msg 520 139 350 40000;
#X obj 474 472 earplug~ 96 0;
#X obj 681 471 earplug~ 170 0;
#X msg 697 118 300 40000;
#X msg 925 131 500 40000;
#X msg 1247 120 370 40000;
#X obj 1174 465 earplug~ 20 0;
#X msg 1622 59 185 40000;
#X msg 1830 42 394 40000;
#X msg 2027 51 309 40000;
#X obj 2028 420 earplug~ 294 0;
#X obj 1783 391 earplug~ 210 0;
#X obj 1569 397 earplug~ 165 0;
#X obj 966 77 inlet;
#X obj 1995 1 inlet;
#X obj 903 63;
#X obj 892 87 bng 15 250 50 0 empty empty empty 17 7 0 10 -262144 -1
-1;
#X connect 0 0 1 0;
#X connect 1 0 2 0;
#X connect 2 0 3 0;
#X connect 3 0 4 0;
#X connect 4 0 178 0;
#X connect 5 0 8 0;
#X connect 5 0 13 0;
#X connect 6 0 7 0;
#X connect 7 0 5 0;
#X connect 8 0 9 0;
#X connect 9 0 10 0;
#X connect 10 0 11 0;
#X connect 11 0 12 0;
#X connect 12 0 178 0;
#X connect 13 0 0 0;
#X connect 14 0 15 0;
#X connect 15 0 16 0;
#X connect 16 0 17 0;
#X connect 17 0 18 0;
#X connect 18 0 182 0;
#X connect 19 0 22 0;
#X connect 19 0 27 0;
#X connect 20 0 21 0;
#X connect 21 0 19 0;
#X connect 22 0 23 0;
#X connect 23 0 24 0;
#X connect 24 0 25 0;
#X connect 25 0 26 0;
#X connect 26 0 182 0;
#X connect 27 0 14 0;
#X connect 28 0 29 0;
#X connect 29 0 30 0;
#X connect 30 0 31 0;
#X connect 31 0 32 0;
#X connect 32 0 183 0;
#X connect 33 0 36 0;
#X connect 33 0 41 0;
#X connect 34 0 35 0;
#X connect 35 0 33 0;
#X connect 36 0 37 0;
#X connect 37 0 38 0;
#X connect 38 0 39 0;
#X connect 39 0 40 0;
#X connect 40 0 183 0;
#X connect 41 0 28 0;
#X connect 42 0 43 0;
#X connect 43 0 44 0;
#X connect 44 0 45 0;
#X connect 45 0 46 0;
#X connect 46 0 64 0;
#X connect 47 0 50 0;
#X connect 47 0 55 0;
#X connect 48 0 49 0;
#X connect 49 0 47 0;
#X connect 50 0 51 0;
#X connect 51 0 52 0;
#X connect 52 0 53 0;
#X connect 53 0 54 0;
#X connect 54 0 64 0;
#X connect 55 0 42 0;
#X connect 56 0 59 0;
#X connect 57 0 58 0;
#X connect 58 0 56 0;
#X connect 59 0 60 0;
#X connect 60 0 61 0;
#X connect 61 0 62 0;
#X connect 62 0 63 0;
#X connect 63 0 177 0;
#X connect 64 0 69 0;
#X connect 64 1 74 0;
#X connect 65 0 171 0;
#X connect 66 0 171 0;
#X connect 67 0 171 0;
#X connect 68 0 171 0;
#X connect 69 0 171 0;
#X connect 70 0 172 0;
#X connect 71 0 172 0;
#X connect 72 0 172 0;
#X connect 73 0 172 0;
#X connect 74 0 172 0;
#X connect 75 0 76 0;
#X connect 76 0 70 1;
#X connect 76 0 65 1;
#X connect 77 0 78 0;
#X connect 78 0 71 1;
#X connect 78 0 66 1;
#X connect 79 0 80 0;
#X connect 80 0 67 1;
#X connect 80 0 72 1;
#X connect 81 0 82 0;
#X connect 82 0 73 1;
#X connect 82 0 68 1;
#X connect 83 0 84 0;
#X connect 84 0 74 1;
#X connect 84 0 69 1;
#X connect 85 0 86 0;
#X connect 86 0 87 0;
#X connect 87 0 88 0;
#X connect 88 0 89 0;
#X connect 89 0 170 0;
#X connect 90 0 93 0;
#X connect 90 0 98 0;
#X connect 91 0 92 0;
#X connect 92 0 90 0;
#X connect 93 0 94 0;
#X connect 94 0 95 0;
#X connect 95 0 96 0;
#X connect 96 0 97 0;
#X connect 97 0 170 0;
#X connect 98 0 85 0;
#X connect 99 0 100 0;
#X connect 100 0 101 0;
#X connect 101 0 102 0;
#X connect 102 0 103 0;
#X connect 103 0 193 0;
#X connect 104 0 107 0;
#X connect 104 0 112 0;
#X connect 105 0 106 0;
#X connect 106 0 104 0;
#X connect 107 0 108 0;
#X connect 108 0 109 0;
#X connect 109 0 110 0;
#X connect 110 0 111 0;
#X connect 111 0 193 0;
#X connect 112 0 99 0;
#X connect 113 0 114 0;
#X connect 114 0 115 0;
#X connect 115 0 116 0;
#X connect 116 0 117 0;
#X connect 117 0 192 0;
#X connect 118 0 121 0;
#X connect 118 0 126 0;
#X connect 119 0 120 0;
#X connect 120 0 118 0;
#X connect 121 0 122 0;
#X connect 122 0 123 0;
#X connect 123 0 124 0;
#X connect 124 0 125 0;
#X connect 125 0 192 0;
#X connect 126 0 113 0;
#X connect 127 0 128 0;
#X connect 128 0 129 0;
#X connect 129 0 130 0;
#X connect 130 0 131 0;
#X connect 131 0 191 0;
#X connect 132 0 135 0;
#X connect 132 0 140 0;
#X connect 133 0 134 0;
#X connect 134 0 132 0;
#X connect 135 0 136 0;
#X connect 136 0 137 0;
#X connect 137 0 138 0;
#X connect 138 0 139 0;
#X connect 139 0 191 0;
#X connect 140 0 127 0;
#X connect 141 0 144 0;
#X connect 142 0 143 0;
#X connect 143 0 141 0;
#X connect 144 0 145 0;
#X connect 145 0 146 0;
#X connect 146 0 147 0;
#X connect 147 0 148 0;
#X connect 148 0 187 0;
#X connect 149 0 171 0;
#X connect 150 0 171 0;
#X connect 151 0 171 0;
#X connect 152 0 171 0;
#X connect 153 0 171 0;
#X connect 154 0 172 0;
#X connect 155 0 172 0;
#X connect 156 0 172 0;
#X connect 157 0 172 0;
#X connect 158 0 172 0;
#X connect 159 0 160 0;
#X connect 160 0 154 1;
#X connect 160 0 149 1;
#X connect 161 0 162 0;
#X connect 162 0 155 1;
#X connect 162 0 150 1;
#X connect 163 0 164 0;
#X connect 164 0 151 1;
#X connect 164 0 156 1;
#X connect 165 0 166 0;
#X connect 166 0 157 1;
#X connect 166 0 152 1;
#X connect 167 0 168 0;
#X connect 168 0 158 1;
#X connect 168 0 153 1;
#X connect 169 0 90 0;
#X connect 170 0 150 0;
#X connect 170 1 155 0;
#X connect 173 0 179 0;
#X connect 173 0 180 0;
#X connect 173 0 181 0;
#X connect 173 0 184 0;
#X connect 173 0 197 0;
#X connect 174 0 186 0;
#X connect 174 0 169 0;
#X connect 174 0 188 0;
#X connect 174 0 189 0;
#X connect 174 0 190 0;
#X connect 175 0 6 0;
#X connect 175 0 20 0;
#X connect 175 0 34 0;
#X connect 175 0 48 0;
#X connect 175 0 57 0;
#X connect 176 0 142 0;
#X connect 176 0 91 0;
#X connect 176 0 105 0;
#X connect 176 0 119 0;
#X connect 176 0 133 0;
#X connect 177 0 65 0;
#X connect 177 1 70 0;
#X connect 178 0 66 0;
#X connect 178 1 71 0;
#X connect 179 0 56 0;
#X connect 180 0 5 0;
#X connect 181 0 19 0;
#X connect 182 0 67 0;
#X connect 182 1 72 0;
#X connect 183 0 68 0;
#X connect 183 1 73 0;
#X connect 184 0 33 0;
#X connect 185 0 47 0;
#X connect 186 0 141 0;
#X connect 187 0 149 0;
#X connect 187 1 154 0;
#X connect 188 0 104 0;
#X connect 189 0 118 0;
#X connect 190 0 132 0;
#X connect 191 0 153 0;
#X connect 191 1 158 0;
#X connect 192 0 152 0;
#X connect 192 1 157 0;
#X connect 193 0 151 0;
#X connect 193 1 156 0;
#X connect 194 0 83 0;
#X connect 194 0 81 0;
#X connect 194 0 79 0;
#X connect 194 0 77 0;
#X connect 194 0 75 0;
#X connect 195 0 159 0;
#X connect 195 0 161 0;
#X connect 195 0 163 0;
#X connect 195 0 165 0;
#X connect 195 0 167 0;
#X connect 197 0 185 0;
#X restore 554 241 pd settwo;
#X f 14;
#X obj 539 177 bng 15 250 50 0 empty empty empty 17 7 0 10 -262144
-1 -1;
#X obj 556 200 bng 15 250 50 0 empty empty empty 17 7 0 10 -262144
-1 -1;
#X obj 622 187 bng 15 250 50 0 empty empty empty 17 7 0 10 -262144
-1 -1;
#X obj 610 154 bng 15 250 50 0 empty empty empty 17 7 0 10 -262144
-1 -1;
#X obj 544 93 hsl 128 15 0 127 0 0 empty empty empty -2 -8 0 10 -262144
-1 -1 2000 1;
#X obj 559 114 hsl 128 15 0 127 0 0 empty empty empty -2 -8 0 10 -262144
-1 -1 2600 1;
#X obj 370 87 hsl 128 15 0 127 0 0 empty empty empty -2 -8 0 10 -262144
-1 -1 2600 1;
#X obj 391 113 hsl 128 15 0 127 0 0 empty empty empty -2 -8 0 10 -262144
-1 -1 2100 1;
#X obj 705 175 bng 15 250 50 0 empty empty empty 17 7 0 10 -262144
-1 -1;
#X obj 722 198 bng 15 250 50 0 empty empty empty 17 7 0 10 -262144
-1 -1;
#X obj 757 186 bng 15 250 50 0 empty empty empty 17 7 0 10 -262144
-1 -1;
#X obj 776 152 bng 15 250 50 0 empty empty empty 17 7 0 10 -262144
-1 -1;
#X obj 710 91 hsl 128 15 0 127 0 0 empty empty empty -2 -8 0 10 -262144
-1 -1 2200 1;
#X obj 725 112 hsl 128 15 0 127 0 0 empty empty empty -2 -8 0 10 -262144
-1 -1 2600 1;
#N canvas 0 134 1920 899 setthree 0;
#X obj 324 292 phasor~ 150;
#X obj 336 333 -~ 0.5;
#X obj 335 365 abs~;
#X obj 339 408 *~ 4;
#X obj 346 445 -~ 1;
#X obj 235 217 line~ 0 1 10000;
#X obj 204 149 bng 15 250 50 0 empty empty empty 17 7 0 10 -262144
-1 -1;
#X msg 232 179 0 80000;
#X obj 234 286 phasor~ 150;
#X obj 246 327 -~ 0.5;
#X obj 245 359 abs~;
#X obj 249 402 *~ 4;
#X obj 256 439 -~ 1;
#X obj 318 244 *~ 2;
#X obj 536 269 phasor~ 150;
#X obj 548 310 -~ 0.5;
#X obj 547 342 abs~;
#X obj 551 385 *~ 4;
#X obj 558 422 -~ 1;
#X obj 447 194 line~ 0 1 10000;
#X obj 416 126 bng 15 250 50 0 empty empty empty 17 7 0 10 -262144
-1 -1;
#X msg 444 156 0 80000;
#X obj 446 263 phasor~ 150;
#X obj 458 304 -~ 0.5;
#X obj 457 336 abs~;
#X obj 461 379 *~ 4;
#X obj 468 416 -~ 1;
#X obj 529 222 *~ 1.2;
#X obj 744 252 phasor~ 150;
#X obj 756 293 -~ 0.5;
#X obj 755 325 abs~;
#X obj 759 368 *~ 4;
#X obj 766 405 -~ 1;
#X obj 655 177 line~ 0 1 10000;
#X obj 624 109 bng 15 250 50 0 empty empty empty 17 7 0 10 -262144
-1 -1;
#X msg 652 139 0 80000;
#X obj 654 246 phasor~ 150;
#X obj 666 287 -~ 0.5;
#X obj 665 319 abs~;
#X obj 669 362 *~ 4;
#X obj 676 399 -~ 1;
#X obj 737 205 *~ 1.125;
#X obj 941 261 phasor~ 150;
#X obj 953 302 -~ 0.5;
#X obj 952 334 abs~;
#X obj 956 377 *~ 4;
#X obj 963 414 -~ 1;
#X obj 852 186 line~ 0 1 10000;
#X obj 821 118 bng 15 250 50 0 empty empty empty 17 7 0 10 -262144
-1 -1;
#X msg 849 148 0 80000;
#X obj 851 255 phasor~ 150;
#X obj 863 296 -~ 0.5;
#X obj 862 328 abs~;
#X obj 866 371 *~ 4;
#X obj 873 408 -~ 1;
#X obj 934 214 *~ 1.25;
#X obj 71 256 line~ 0 1 10000;
#X obj 40 188 bng 15 250 50 0 empty empty empty 17 7 0 10 -262144 -1
-1;
#X msg 68 218 0 80000;
#X obj 70 325 phasor~ 150;
#X obj 82 366 -~ 0.5;
#X obj 81 398 abs~;
#X obj 85 441 *~ 4;
#X obj 92 478 -~ 1;
#X obj 87 676 *~ 1;
#X obj 256 571 *~ 1;
#X obj 484 553 *~ 1;
#X obj 683 562 *~ 1;
#X obj 941 563 *~ 1;
#X obj 129 667 *~ 1;
#X obj 298 561 *~ 1;
#X obj 543 561 *~ 1;
#X obj 725 552 *~ 1;
#X obj 983 553 *~ 1;
#X obj 154 603 hsl 128 15 0 127 0 0 empty empty empty -2 -8 0 10 -262144
-1 -1 2200 1;
#X obj 153 637 / 128;
#X obj 335 497 hsl 128 15 0 127 0 0 empty empty empty -2 -8 0 10 -262144
-1 -1 2200 1;
#X obj 334 531 / 128;
#X obj 495 494 hsl 128 15 0 127 0 0 empty empty empty -2 -8 0 10 -262144
-1 -1 2200 1;
#X obj 508 518 / 128;
#X obj 771 491 hsl 128 15 0 127 0 0 empty empty empty -2 -8 0 10 -262144
-1 -1 2200 1;
#X obj 769 525 / 128;
#X obj 1028 484 hsl 128 15 0 127 0 0 empty empty empty -2 -8 0 10 -262144
-1 -1 2200 1;
#X obj 1027 518 / 128;
#X obj 1426 212 phasor~ 150;
#X obj 1438 253 -~ 0.5;
#X obj 1437 285 abs~;
#X obj 1441 328 *~ 4;
#X obj 1448 365 -~ 1;
#X obj 1337 137 line~ 0 1 10000;
#X obj 1306 69 bng 15 250 50 0 empty empty empty 17 7 0 10 -262144
-1 -1;
#X msg 1334 99 0 80000;
#X obj 1336 206 phasor~ 150;
#X obj 1348 247 -~ 0.5;
#X obj 1347 279 abs~;
#X obj 1351 322 *~ 4;
#X obj 1358 359 -~ 1;
#X obj 1420 164 *~ 2;
#X obj 1638 189 phasor~ 150;
#X obj 1650 230 -~ 0.5;
#X obj 1649 262 abs~;
#X obj 1653 305 *~ 4;
#X obj 1660 342 -~ 1;
#X obj 1549 114 line~ 0 1 10000;
#X obj 1518 46 bng 15 250 50 0 empty empty empty 17 7 0 10 -262144
-1 -1;
#X msg 1546 76 0 80000;
#X obj 1548 183 phasor~ 150;
#X obj 1560 224 -~ 0.5;
#X obj 1559 256 abs~;
#X obj 1563 299 *~ 4;
#X obj 1570 336 -~ 1;
#X obj 1631 142 *~ 1.2;
#X obj 1846 172 phasor~ 150;
#X obj 1858 213 -~ 0.5;
#X obj 1857 245 abs~;
#X obj 1861 288 *~ 4;
#X obj 1868 325 -~ 1;
#X obj 1757 97 line~ 0 1 10000;
#X obj 1726 29 bng 15 250 50 0 empty empty empty 17 7 0 10 -262144
-1 -1;
#X msg 1754 59 0 80000;
#X obj 1756 166 phasor~ 150;
#X obj 1768 207 -~ 0.5;
#X obj 1767 239 abs~;
#X obj 1771 282 *~ 4;
#X obj 1778 319 -~ 1;
#X obj 1839 125 *~ 1.125;
#X obj 2043 181 phasor~ 150;
#X obj 2055 222 -~ 0.5;
#X obj 2054 254 abs~;
#X obj 2058 297 *~ 4;
#X obj 2065 334 -~ 1;
#X obj 1954 106 line~ 0 1 10000;
#X obj 1923 38 bng 15 250 50 0 empty empty empty 17 7 0 10 -262144
-1 -1;
#X msg 1951 68 0 80000;
#X obj 1953 175 phasor~ 150;
#X obj 1965 216 -~ 0.5;
#X obj 1964 248 abs~;
#X obj 1968 291 *~ 4;
#X obj 1975 328 -~ 1;
#X obj 2036 134 *~ 1.25;
#X obj 1173 176 line~ 0 1 10000;
#X obj 1142 108 bng 15 250 50 0 empty empty empty 17 7 0 10 -262144
-1 -1;
#X msg 1170 138 0 80000;
#X obj 1172 245 phasor~ 150;
#X obj 1184 286 -~ 0.5;
#X obj 1183 318 abs~;
#X obj 1187 361 *~ 4;
#X obj 1194 398 -~ 1;
#X obj 1189 596 *~ 1;
#X obj 1358 491 *~ 1;
#X obj 1586 473 *~ 1;
#X obj 1785 482 *~ 1;
#X obj 2043 483 *~ 1;
#X obj 1232 590 *~ 1;
#X obj 1400 481 *~ 1;
#X obj 1645 481 *~ 1;
#X obj 1827 472 *~ 1;
#X obj 2085 473 *~ 1;
#X obj 1256 523 hsl 128 15 0 127 0 0 empty empty empty -2 -8 0 10 -262144
-1 -1 2600 1;
#X obj 1255 557 / 128;
#X obj 1437 417 hsl 128 15 0 127 0 0 empty empty empty -2 -8 0 10 -262144
-1 -1 2600 1;
#X obj 1436 451 / 128;
#X obj 1597 414 hsl 128 15 0 127 0 0 empty empty empty -2 -8 0 10 -262144
-1 -1 2600 1;
#X obj 1610 438 / 128;
#X obj 1872 411 hsl 128 15 0 127 0 0 empty empty empty -2 -8 0 10 -262144
-1 -1 2600 1;
#X obj 1871 445 / 128;
#X obj 2130 404 hsl 128 15 0 127 0 0 empty empty empty -2 -8 0 10 -262144
-1 -1 2600 1;
#X obj 2129 438 / 128;
#X msg 1411 81 140 40000;
#X obj 1339 421 earplug~ 100 0;
#X obj 1228 859 outlet~;
#X obj 1291 859 outlet~;
#X obj 498 26 inlet;
#X obj 1716 -2 inlet;
#X obj 666 35 inlet;
#X obj 1345 3 inlet;
#X msg 1247 120 370 40000;
#X obj 1174 465 earplug~ 20 0;
#X msg 1622 59 185 40000;
#X msg 1830 42 394 40000;
#X msg 2027 51 309 40000;
#X obj 2028 420 earplug~ 294 0;
#X obj 1783 391 earplug~ 210 0;
#X obj 1569 397 earplug~ 165 0;
#X obj 966 77 inlet;
#X obj 1995 1 inlet;
#X obj 903 63;
#X obj 892 87 bng 15 250 50 0 empty empty empty 17 7 0 10 -262144 -1
-1;
#X msg 145 200 555 40000;
#X msg 309 161 655 40000;
#X msg 520 139 577 40000;
#X msg 697 118 500 40000;
#X msg 925 131 445 40000;
#X obj 928 499 earplug~ 272 0;
#X obj 681 471 earplug~ 178 0;
#X obj 474 472 earplug~ 106 0;
#X obj 245 500 earplug~ 42 0;
#X obj 75 542 earplug~ 355 0;
#X connect 0 0 1 0;
#X connect 1 0 2 0;
#X connect 2 0 3 0;
#X connect 3 0 4 0;
#X connect 4 0 196 0;
#X connect 5 0 8 0;
#X connect 5 0 13 0;
#X connect 6 0 7 0;
#X connect 7 0 5 0;
#X connect 8 0 9 0;
#X connect 9 0 10 0;
#X connect 10 0 11 0;
#X connect 11 0 12 0;
#X connect 12 0 196 0;
#X connect 13 0 0 0;
#X connect 14 0 15 0;
#X connect 15 0 16 0;
#X connect 16 0 17 0;
#X connect 17 0 18 0;
#X connect 18 0 195 0;
#X connect 19 0 22 0;
#X connect 19 0 27 0;
#X connect 20 0 21 0;
#X connect 21 0 19 0;
#X connect 22 0 23 0;
#X connect 23 0 24 0;
#X connect 24 0 25 0;
#X connect 25 0 26 0;
#X connect 26 0 195 0;
#X connect 27 0 14 0;
#X connect 28 0 29 0;
#X connect 29 0 30 0;
#X connect 30 0 31 0;
#X connect 31 0 32 0;
#X connect 32 0 194 0;
#X connect 33 0 36 0;
#X connect 33 0 41 0;
#X connect 34 0 35 0;
#X connect 35 0 33 0;
#X connect 36 0 37 0;
#X connect 37 0 38 0;
#X connect 38 0 39 0;
#X connect 39 0 40 0;
#X connect 40 0 194 0;
#X connect 41 0 28 0;
#X connect 42 0 43 0;
#X connect 43 0 44 0;
#X connect 44 0 45 0;
#X connect 45 0 46 0;
#X connect 46 0 193 0;
#X connect 47 0 50 0;
#X connect 47 0 55 0;
#X connect 48 0 49 0;
#X connect 49 0 47 0;
#X connect 50 0 51 0;
#X connect 51 0 52 0;
#X connect 52 0 53 0;
#X connect 53 0 54 0;
#X connect 54 0 193 0;
#X connect 55 0 42 0;
#X connect 56 0 59 0;
#X connect 57 0 58 0;
#X connect 58 0 56 0;
#X connect 59 0 60 0;
#X connect 60 0 61 0;
#X connect 61 0 62 0;
#X connect 62 0 63 0;
#X connect 63 0 197 0;
#X connect 64 0 170 0;
#X connect 65 0 170 0;
#X connect 66 0 170 0;
#X connect 67 0 170 0;
#X connect 68 0 170 0;
#X connect 69 0 171 0;
#X connect 70 0 171 0;
#X connect 71 0 171 0;
#X connect 72 0 171 0;
#X connect 73 0 171 0;
#X connect 74 0 75 0;
#X connect 75 0 69 1;
#X connect 75 0 64 1;
#X connect 76 0 77 0;
#X connect 77 0 70 1;
#X connect 77 0 65 1;
#X connect 78 0 79 0;
#X connect 79 0 66 1;
#X connect 79 0 71 1;
#X connect 80 0 81 0;
#X connect 81 0 72 1;
#X connect 81 0 67 1;
#X connect 82 0 83 0;
#X connect 83 0 73 1;
#X connect 83 0 68 1;
#X connect 84 0 85 0;
#X connect 85 0 86 0;
#X connect 86 0 87 0;
#X connect 87 0 88 0;
#X connect 88 0 169 0;
#X connect 89 0 92 0;
#X connect 89 0 97 0;
#X connect 90 0 91 0;
#X connect 91 0 89 0;
#X connect 92 0 93 0;
#X connect 93 0 94 0;
#X connect 94 0 95 0;
#X connect 95 0 96 0;
#X connect 96 0 169 0;
#X connect 97 0 84 0;
#X connect 98 0 99 0;
#X connect 99 0 100 0;
#X connect 100 0 101 0;
#X connect 101 0 102 0;
#X connect 102 0 183 0;
#X connect 103 0 106 0;
#X connect 103 0 111 0;
#X connect 104 0 105 0;
#X connect 105 0 103 0;
#X connect 106 0 107 0;
#X connect 107 0 108 0;
#X connect 108 0 109 0;
#X connect 109 0 110 0;
#X connect 110 0 183 0;
#X connect 111 0 98 0;
#X connect 112 0 113 0;
#X connect 113 0 114 0;
#X connect 114 0 115 0;
#X connect 115 0 116 0;
#X connect 116 0 182 0;
#X connect 117 0 120 0;
#X connect 117 0 125 0;
#X connect 118 0 119 0;
#X connect 119 0 117 0;
#X connect 120 0 121 0;
#X connect 121 0 122 0;
#X connect 122 0 123 0;
#X connect 123 0 124 0;
#X connect 124 0 182 0;
#X connect 125 0 112 0;
#X connect 126 0 127 0;
#X connect 127 0 128 0;
#X connect 128 0 129 0;
#X connect 129 0 130 0;
#X connect 130 0 181 0;
#X connect 131 0 134 0;
#X connect 131 0 139 0;
#X connect 132 0 133 0;
#X connect 133 0 131 0;
#X connect 134 0 135 0;
#X connect 135 0 136 0;
#X connect 136 0 137 0;
#X connect 137 0 138 0;
#X connect 138 0 181 0;
#X connect 139 0 126 0;
#X connect 140 0 143 0;
#X connect 141 0 142 0;
#X connect 142 0 140 0;
#X connect 143 0 144 0;
#X connect 144 0 145 0;
#X connect 145 0 146 0;
#X connect 146 0 147 0;
#X connect 147 0 177 0;
#X connect 148 0 170 0;
#X connect 149 0 170 0;
#X connect 150 0 170 0;
#X connect 151 0 170 0;
#X connect 152 0 170 0;
#X connect 153 0 171 0;
#X connect 154 0 171 0;
#X connect 155 0 171 0;
#X connect 156 0 171 0;
#X connect 157 0 171 0;
#X connect 158 0 159 0;
#X connect 159 0 153 1;
#X connect 159 0 148 1;
#X connect 160 0 161 0;
#X connect 161 0 154 1;
#X connect 161 0 149 1;
#X connect 162 0 163 0;
#X connect 163 0 150 1;
#X connect 163 0 155 1;
#X connect 164 0 165 0;
#X connect 165 0 156 1;
#X connect 165 0 151 1;
#X connect 166 0 167 0;
#X connect 167 0 157 1;
#X connect 167 0 152 1;
#X connect 168 0 89 0;
#X connect 169 0 149 0;
#X connect 169 1 154 0;
#X connect 172 0 188 0;
#X connect 172 0 189 0;
#X connect 172 0 190 0;
#X connect 172 0 191 0;
#X connect 172 0 187 0;
#X connect 173 0 176 0;
#X connect 173 0 168 0;
#X connect 173 0 178 0;
#X connect 173 0 179 0;
#X connect 173 0 180 0;
#X connect 174 0 6 0;
#X connect 174 0 20 0;
#X connect 174 0 34 0;
#X connect 174 0 48 0;
#X connect 174 0 57 0;
#X connect 175 0 141 0;
#X connect 175 0 90 0;
#X connect 175 0 104 0;
#X connect 175 0 118 0;
#X connect 175 0 132 0;
#X connect 176 0 140 0;
#X connect 177 0 148 0;
#X connect 177 1 153 0;
#X connect 178 0 103 0;
#X connect 179 0 117 0;
#X connect 180 0 131 0;
#X connect 181 0 152 0;
#X connect 181 1 157 0;
#X connect 182 0 151 0;
#X connect 182 1 156 0;
#X connect 183 0 150 0;
#X connect 183 1 155 0;
#X connect 184 0 82 0;
#X connect 184 0 80 0;
#X connect 184 0 78 0;
#X connect 184 0 76 0;
#X connect 184 0 74 0;
#X connect 185 0 158 0;
#X connect 185 0 160 0;
#X connect 185 0 162 0;
#X connect 185 0 164 0;
#X connect 185 0 166 0;
#X connect 187 0 192 0;
#X connect 188 0 56 0;
#X connect 189 0 5 0;
#X connect 190 0 19 0;
#X connect 191 0 33 0;
#X connect 192 0 47 0;
#X connect 193 0 68 0;
#X connect 193 1 73 0;
#X connect 194 0 67 0;
#X connect 194 1 72 0;
#X connect 195 0 66 0;
#X connect 195 1 71 0;
#X connect 196 0 65 0;
#X connect 196 1 70 0;
#X connect 197 0 64 0;
#X connect 197 1 69 0;
#X restore 720 239 pd setthree;
#X f 14;
#X obj 641 607 dac~ 1 2;
#X obj 118 267 readsf~;
#X obj 124 328 earplug~ 0 5;
#X obj 137 370 *~ 1;
#X obj 196 378 *~ 1;
#X msg 133 219 open ../Desktop/storm.wav;
#X msg 166 245 1;
#X obj 897 413 vu 15 120 empty empty -1 -8 0 10 -66577 -1 1 0;
#X floatatom 260 266 5 0 0 0 - - -;
#X obj 253 478 *~ 1;
#X obj 312 486 *~ 1;
#X floatatom 376 374 5 0 0 0 - - -;
#X obj 240 436 earplug~ 0 90;
#X obj 285 348 delread~ del1 23;
#X obj 283 312 delwrite~ del1 23;
#X floatatom 158 410 5 0 0 0 - - -;
#X obj 41 391 delwrite~ del2 47;
#X obj 43 427 delread~ del2 47;
#X obj 88 487 *~ 1;
#X obj 139 492 *~ 1;
#X obj 75 449 earplug~ 270 5, f 12;
#X floatatom 462 433 5 0 0 0 - - -;
#X obj 392 510 *~ 1;
#X obj 443 515 *~ 1;
#X obj 379 472 earplug~ 90 5;
#X obj 345 414 delwrite~ del3 47;
#X obj 347 449 delread~ del3 47;
#X floatatom 349 595 5 0 0 0 - - -;
#X obj 270 660 *~ 1;
#X obj 321 665 *~ 1;
#X obj 223 564 delwrite~ del4 123;
#X obj 225 600 delread~ del4 123;
#X obj 257 622 earplug~ 180 5;
#X connect 0 0 21 0;
#X connect 0 1 21 1;
#X connect 1 0 0 0;
#X connect 2 0 0 1;
#X connect 3 0 0 3;
#X connect 4 0 0 4;
#X connect 5 0 21 0;
#X connect 5 1 21 1;
#X connect 6 0 5 0;
#X connect 7 0 5 1;
#X connect 8 0 5 3;
#X connect 9 0 5 4;
#X connect 10 0 5 2;
#X connect 11 0 5 5;
#X connect 12 0 0 2;
#X connect 13 0 0 5;
#X connect 14 0 20 0;
#X connect 15 0 20 1;
#X connect 16 0 20 3;
#X connect 17 0 20 4;
#X connect 18 0 20 2;
#X connect 19 0 20 5;
#X connect 20 0 21 0;
#X connect 20 1 21 1;
#X connect 22 0 23 0;
#X connect 22 0 35 0;
#X connect 22 0 37 0;
#X connect 22 0 41 0;
#X connect 22 0 46 0;
#X connect 22 0 51 0;
#X connect 23 0 24 0;
#X connect 23 1 25 0;
#X connect 24 0 21 0;
#X connect 25 0 21 1;
#X connect 26 0 22 0;
#X connect 27 0 22 0;
#X connect 29 0 25 1;
#X connect 29 0 24 1;
#X connect 30 0 21 0;
#X connect 31 0 21 1;
#X connect 32 0 31 1;
#X connect 32 0 30 1;
#X connect 33 0 30 0;
#X connect 33 1 31 0;
#X connect 34 0 33 0;
#X connect 36 0 40 1;
#X connect 36 0 39 1;
#X connect 38 0 41 0;
#X connect 39 0 21 0;
#X connect 40 0 21 1;
#X connect 41 0 39 0;
#X connect 41 1 40 0;
#X connect 42 0 44 1;
#X connect 42 0 43 1;
#X connect 43 0 21 0;
#X connect 44 0 21 1;
#X connect 45 0 43 0;
#X connect 45 1 44 0;
#X connect 47 0 45 0;
#X connect 48 0 50 1;
#X connect 48 0 49 1;
#X connect 49 0 21 0;
#X connect 50 0 21 1;
#X connect 52 0 53 0;
#X connect 53 0 49 0;
#X connect 53 1 50 0;
