#N canvas 990 523 707 414 10;
#X obj 75 124 Gem, f 5;
#X obj 75 67 gemhead;
#X obj 75 95 cube;
#X msg 231 66 destroy;
#X msg 147 66 create \, 1;
#X obj 190 125 gemwin;
#X connect 1 0 2 0;
#X connect 2 0 0 0;
#X connect 3 0 5 0;
#X connect 4 0 5 0;
