#N canvas 6 83 1914 887 10;
#X obj 82 502 osc~ 50;
#X obj 251 503 osc~ 50;
#X obj 155 602 *~;
#X obj 233 600 *~;
#X obj 174 523 vline~, f 7;
#X obj 319 529 vline~, f 7;
#X obj 973 848 dac~ 1 2, f 9;
#X obj 670 32 loadbang;
#X msg 82 398 seed 645654;
#X obj 588 472 osc~ 50;
#X obj 757 473 osc~ 50;
#X obj 661 572 *~;
#X obj 714 572 *~;
#X obj 680 493 vline~, f 7;
#X obj 825 499 vline~, f 7;
#X obj 544 393 random 1000;
#X obj 857 367 random 1000;
#X msg 588 368 seed 65484;
#X msg 870 338 seed 54684;
#X msg 364 368 seed 13544;
#X msg 499 103 1;
#X obj 627 405 t b;
#X obj 857 395 t b;
#X obj 356 422 t b;
#X obj 111 452 delay 25 1 msec;
#X obj 356 446 delay 25 1 msec;
#X obj 653 419 delay 25 1 msec;
#X obj 858 420 delay 25 1 msec;
#X obj 269 570 *~ 5e-05;
#X obj 170 554 *~ 5e-05;
#X obj 1009 477 osc~ 50;
#X obj 1178 478 osc~ 50;
#X obj 1082 577 *~;
#X obj 1170 596 *~;
#X obj 1101 498 vline~, f 7;
#X obj 1246 504 vline~, f 7;
#X obj 1423 12 loadbang;
#X obj 1515 447 osc~ 50;
#X obj 1684 448 osc~ 50;
#X obj 1542 530 *~;
#X obj 1641 547 *~;
#X obj 1607 468 vline~, f 7;
#X obj 1752 474 vline~, f 7;
#X msg 1238 72 1;
#X obj 1554 380 t b;
#X obj 1784 370 t b;
#X obj 1283 397 t b;
#X obj 1038 427 delay 25 1 msec;
#X obj 1283 421 delay 25 1 msec;
#X obj 1580 394 delay 25 1 msec;
#X obj 1785 395 delay 25 1 msec;
#X obj 965 398 random 2000;
#X obj 1278 372 random 2000;
#X obj 1471 368 random 3000;
#X obj 1784 342 random 3000;
#X msg 1008 373 seed 64554;
#X msg 1291 343 seed 3544;
#X msg 1515 343 seed 6584;
#X msg 1797 313 seed 5464;
#X msg 912 51 1;
#X obj 1702 515 *~ 2e-06;
#X obj 1602 499 *~ 2e-06;
#X obj 1196 545 *~ 3e-06;
#X obj 1097 529 *~ 3e-06;
#X obj 775 540 *~ 4e-06;
#X obj 676 524 *~ 4e-06;
#X obj 351 397 random 500;
#X obj 959 725 *~;
#X obj 1040 726 *~;
#X obj 923 509 vsl 15 128 0 127 0 0 empty empty empty 0 -9 0 10 -262144
-1 -1 6500 1;
#X obj 990 619 vline~, f 7;
#X msg 992 594 \$1 25;
#X obj 986 650 *~ 0.1;
#X obj 227 144 metro 8000 1 msec;
#X obj 733 114 metro 9000 1 msec;
#X obj 1154 119 metro 10000 1 msec;
#X obj 1660 89 metro 11000 1 msec;
#X msg 1232 729 bang;
#X msg 1319 761 start;
#X msg 1321 787 stop;
#X obj 1310 853 writesf~ 2;
#X msg 1310 677 open /Users/tune/foo.wav;
#X msg 607 822 0 1000 100 \, 1000 0 495;
#X msg 1167 49 0;
#X msg 132 474 1000 50 100 \, 0 4000 6520;
#X msg 328 476 1000 50 100 \, 0 4000 6520;
#X obj 38 423 random 250;
#X obj 999 420 t b;
#X obj 70 444 t b;
#X obj 1232 760 del 18000;
#X msg 831 475 1000 50 100 \, 0 4000 6985;
#X msg 637 444 1000 50 100 \, 0 4000 6985;
#X msg 1058 449 1000 50 100 \, 0 4000 6985;
#X msg 1254 450 1000 50 100 \, 0 4000 6985;
#X msg 1564 419 1000 50 100 \, 0 4000 6985;
#X msg 1757 451 1000 50 100 \, 0 4000 6985;
#X connect 0 0 2 0;
#X connect 1 0 3 0;
#X connect 2 0 67 0;
#X connect 3 0 68 0;
#X connect 4 0 29 0;
#X connect 5 0 28 0;
#X connect 7 0 8 0;
#X connect 7 0 19 0;
#X connect 7 0 17 0;
#X connect 7 0 18 0;
#X connect 7 0 59 0;
#X connect 8 0 86 0;
#X connect 9 0 11 0;
#X connect 10 0 12 0;
#X connect 11 0 67 0;
#X connect 12 0 68 0;
#X connect 13 0 65 0;
#X connect 14 0 64 0;
#X connect 15 0 9 0;
#X connect 15 0 21 0;
#X connect 16 0 10 0;
#X connect 16 0 22 0;
#X connect 17 0 15 0;
#X connect 18 0 16 0;
#X connect 19 0 66 0;
#X connect 20 0 73 0;
#X connect 20 0 74 0;
#X connect 21 0 26 0;
#X connect 22 0 27 0;
#X connect 23 0 25 0;
#X connect 24 0 84 0;
#X connect 25 0 85 0;
#X connect 26 0 91 0;
#X connect 27 0 90 0;
#X connect 28 0 3 1;
#X connect 29 0 2 1;
#X connect 30 0 32 0;
#X connect 31 0 33 0;
#X connect 32 0 67 0;
#X connect 32 0 68 0;
#X connect 33 0 67 0;
#X connect 33 0 68 0;
#X connect 34 0 63 0;
#X connect 35 0 62 0;
#X connect 36 0 55 0;
#X connect 36 0 56 0;
#X connect 36 0 57 0;
#X connect 36 0 58 0;
#X connect 37 0 39 0;
#X connect 38 0 40 0;
#X connect 39 0 67 0;
#X connect 40 0 68 0;
#X connect 41 0 61 0;
#X connect 42 0 60 0;
#X connect 43 0 75 0;
#X connect 43 0 76 0;
#X connect 44 0 49 0;
#X connect 45 0 50 0;
#X connect 46 0 48 0;
#X connect 47 0 92 0;
#X connect 48 0 93 0;
#X connect 49 0 94 0;
#X connect 50 0 95 0;
#X connect 51 0 30 0;
#X connect 51 0 87 0;
#X connect 52 0 31 0;
#X connect 52 0 46 0;
#X connect 53 0 37 0;
#X connect 53 0 44 0;
#X connect 54 0 38 0;
#X connect 54 0 45 0;
#X connect 55 0 51 0;
#X connect 56 0 52 0;
#X connect 57 0 53 0;
#X connect 58 0 54 0;
#X connect 59 0 20 0;
#X connect 59 0 43 0;
#X connect 60 0 40 1;
#X connect 61 0 39 1;
#X connect 62 0 33 1;
#X connect 63 0 32 1;
#X connect 64 0 12 1;
#X connect 65 0 11 1;
#X connect 66 0 1 0;
#X connect 66 0 23 0;
#X connect 67 0 6 0;
#X connect 67 0 80 0;
#X connect 68 0 6 1;
#X connect 68 0 80 1;
#X connect 69 0 71 0;
#X connect 70 0 72 0;
#X connect 71 0 70 0;
#X connect 72 0 68 1;
#X connect 72 0 67 1;
#X connect 73 0 66 0;
#X connect 73 0 86 0;
#X connect 74 0 15 0;
#X connect 74 0 16 0;
#X connect 75 0 51 0;
#X connect 75 0 52 0;
#X connect 76 0 53 0;
#X connect 76 0 54 0;
#X connect 77 0 78 0;
#X connect 77 0 89 0;
#X connect 78 0 80 0;
#X connect 79 0 80 0;
#X connect 81 0 80 0;
#X connect 83 0 73 0;
#X connect 83 0 74 0;
#X connect 83 0 75 0;
#X connect 83 0 76 0;
#X connect 84 0 4 0;
#X connect 85 0 5 0;
#X connect 86 0 0 0;
#X connect 86 0 88 0;
#X connect 87 0 47 0;
#X connect 88 0 24 0;
#X connect 89 0 79 0;
#X connect 90 0 14 0;
#X connect 91 0 13 0;
#X connect 92 0 34 0;
#X connect 93 0 35 0;
#X connect 94 0 41 0;
#X connect 95 0 42 0;
