#N canvas 628 205 951 556 10;
#X obj 212 170 hidio;
#X msg 190 83 open 0x046d 0xc216;
#X msg 363 80 close;
#X floatatom 115 339 6 0 0 0 - - -;
#X floatatom 186 359 6 0 0 0 - - -;
#X floatatom 229 359 6 0 0 0 - - -;
#X obj 119 298 route x y z rx ry rz slider dial;
#X obj 64 244 route key relative absolute;
#N canvas 192 183 454 304 remove 0;
#X obj 134 12 inlet;
#X obj 109 60 unpack symbol symbol float float;
#X obj 110 107 pack symbol symbol float;
#X obj 110 135 list trim;
#X obj 116 196 outlet;
#X connect 0 0 1 0;
#X connect 1 0 2 0;
#X connect 1 1 2 1;
#X connect 1 3 2 2;
#X connect 2 0 3 0;
#X connect 3 0 4 0;
#X restore 153 202 pd remove instance numbers;
#X floatatom 65 339 6 0 0 0 - - -;
#N canvas 840 23 558 266 key_0 0;
#X obj 17 17 inlet;
#X obj 17 54 route key;
#X obj 17 86 route key_0;
#X obj 17 206 tgl 25 0 empty empty empty 0 -6 0 8 -195568 -1 -1 0 1
;
#X obj 47 206 tgl 25 0 empty empty empty 0 -6 0 8 -195568 -1 -1 0 133004
;
#X obj 77 206 tgl 25 0 empty empty empty 0 -6 0 8 -195568 -1 -1 0 133004
;
#X obj 107 206 tgl 25 0 empty empty empty 0 -6 0 8 -195568 -1 -1 0
1;
#X obj 137 206 tgl 25 0 empty empty empty 0 -6 0 8 -195568 -1 -1 0
1;
#X obj 167 206 tgl 25 0 empty empty empty 0 -6 0 8 -195568 -1 -1 0
1;
#X obj 197 206 tgl 25 0 empty empty empty 0 -6 0 8 -195568 -1 -1 0
1;
#X obj 227 206 tgl 25 0 empty empty empty 0 -6 0 8 -195568 -1 -1 0
1;
#X obj 257 206 tgl 25 0 empty empty empty 0 -6 0 8 -195568 -1 -1 0
1;
#X obj 287 206 tgl 25 0 empty empty empty 0 -6 0 8 -195568 -1 -1 0
1;
#X obj 317 206 tgl 25 0 empty empty empty 0 -6 0 8 -195568 -1 -1 0
1;
#X obj 347 206 tgl 25 0 empty empty empty 0 -6 0 8 -195568 -1 -1 0
1;
#X obj 377 206 tgl 25 0 empty empty empty 0 -6 0 8 -195568 -1 -1 0
1;
#X obj 407 206 tgl 25 0 empty empty empty 0 -6 0 8 -195568 -1 -1 0
1;
#X obj 437 206 tgl 25 0 empty empty empty 0 -6 0 8 -195568 -1 -1 0
1;
#X obj 467 206 tgl 25 0 empty empty empty 0 -6 0 8 -195568 -1 -1 0
1;
#X obj 17 114 route 4 5 6 7 8 9 10 11 12 13 14 15 16 17 18 19 0;
#X msg 381 142 0;
#X text 177 31 On some platforms \, you key a duplicate set of key
messages where the key type is key_0 and the value is the number of
the key pressed.;
#X connect 0 0 1 0;
#X connect 1 0 2 0;
#X connect 2 0 19 0;
#X connect 19 0 3 0;
#X connect 19 1 4 0;
#X connect 19 2 5 0;
#X connect 19 3 6 0;
#X connect 19 4 7 0;
#X connect 19 5 8 0;
#X connect 19 6 9 0;
#X connect 19 7 10 0;
#X connect 19 8 11 0;
#X connect 19 9 12 0;
#X connect 19 10 13 0;
#X connect 19 11 14 0;
#X connect 19 12 15 0;
#X connect 19 13 16 0;
#X connect 19 14 17 0;
#X connect 19 15 18 0;
#X connect 19 16 20 0;
#X connect 20 0 3 0;
#X connect 20 0 4 0;
#X connect 20 0 18 0;
#X connect 20 0 17 0;
#X connect 20 0 16 0;
#X connect 20 0 15 0;
#X connect 20 0 14 0;
#X connect 20 0 13 0;
#X connect 20 0 12 0;
#X connect 20 0 11 0;
#X connect 20 0 10 0;
#X connect 20 0 9 0;
#X connect 20 0 8 0;
#X connect 20 0 7 0;
#X connect 20 0 6 0;
#X connect 20 0 5 0;
#X restore 157 223 pd key_0 key mapping;
#X obj 43 82 tgl 15 0 empty empty empty 17 7 0 10 -262144 -1 -1 0 1
;
#X text 332 291 comment;
#X obj 60 373 + 220;
#X obj 57 455 osc~ 440;
#X obj 55 430 line~;
#X msg 60 398 \$1 50;
#X obj 123 531 dac~;
#X obj 54 479 *~ 0.5;
#X obj 118 375 + 220;
#X obj 115 457 osc~ 440;
#X obj 113 432 line~;
#X msg 118 400 \$1 50;
#X obj 112 481 *~ 0.5;
#X obj 192 389 + 220;
#X obj 189 471 osc~ 440;
#X obj 187 446 line~;
#X msg 192 414 \$1 50;
#X obj 186 495 *~ 0.5;
#X obj 243 385 + 220;
#X obj 240 467 osc~ 440;
#X obj 238 442 line~;
#X msg 243 410 \$1 50;
#X obj 237 491 *~ 0.5;
#X floatatom 15 412 5 0 0 0 - - -;
#X obj 399 237 vsl 15 256 0 256 0 0 empty empty empty 0 -9 0 10 -262144
-1 -1 13248 1;
#X obj 427 238 vsl 15 256 0 256 0 0 empty empty empty 0 -9 0 10 -262144
-1 -1 12850 1;
#X obj 451 238 vsl 15 256 0 256 0 0 empty empty empty 0 -9 0 10 -262144
-1 -1 12451 1;
#X obj 477 239 vsl 15 256 0 256 0 0 empty empty empty 0 -9 0 10 -262144
-1 -1 12451 1;
#X text 100 83 logitech F310;
#X text 125 105 Sony PS3;
#X msg 192 105 open 0x054c 0x0268;
#X connect 0 0 8 0;
#X connect 1 0 0 0;
#X connect 2 0 0 0;
#X connect 3 0 19 0;
#X connect 3 0 36 0;
#X connect 4 0 24 0;
#X connect 4 0 37 0;
#X connect 5 0 29 0;
#X connect 5 0 38 0;
#X connect 6 0 9 0;
#X connect 6 1 3 0;
#X connect 6 2 4 0;
#X connect 6 5 5 0;
#X connect 7 2 6 0;
#X connect 8 0 7 0;
#X connect 8 0 10 0;
#X connect 9 0 13 0;
#X connect 9 0 35 0;
#X connect 11 0 0 0;
#X connect 13 0 16 0;
#X connect 13 0 34 0;
#X connect 14 0 18 0;
#X connect 15 0 14 0;
#X connect 16 0 15 0;
#X connect 18 0 17 0;
#X connect 19 0 22 0;
#X connect 20 0 23 0;
#X connect 21 0 20 0;
#X connect 22 0 21 0;
#X connect 23 0 17 0;
#X connect 24 0 27 0;
#X connect 25 0 28 0;
#X connect 26 0 25 0;
#X connect 27 0 26 0;
#X connect 28 0 17 1;
#X connect 29 0 32 0;
#X connect 30 0 33 0;
#X connect 31 0 30 0;
#X connect 32 0 31 0;
#X connect 33 0 17 1;
#X connect 41 0 0 0;
