#N canvas 147 54 1333 947 10;
#X obj 110 125 hidio;
#X floatatom 335 164 5 0 0 1 value - -;
#X symbolatom 110 179 15 0 0 1 event_code - -;
#X obj 110 151 unpack symbol symbol float float;
#X msg 113 60 open 0x046d 0xc216;
#X text 142 44 logitech F310;
#X obj 119 102 tgl 10 0 empty empty empty 17 7 0 10 -262144 -1 -1 1
1;
#X msg 70 60 close;
#X msg 95 83 0;
#X msg 126 82 1;
#X obj 120 230 bng 30 250 50 0 empty empty empty 17 7 0 10 -260097
-1 -1;
#X obj 154 230 bng 30 250 50 0 empty empty empty 17 7 0 10 -260097
-1 -1;
#X obj 188 230 bng 30 250 50 0 empty empty empty 17 7 0 10 -260097
-1 -1;
#X obj 222 230 bng 30 250 50 0 empty empty empty 17 7 0 10 -260097
-1 -1;
#X obj 256 230 bng 30 250 50 0 empty empty empty 17 7 0 10 -260097
-1 -1;
#X obj 289 230 bng 30 250 50 0 empty empty empty 17 7 0 10 -260097
-1 -1;
#X obj 323 229 bng 30 250 50 0 empty empty empty 17 7 0 10 -260097
-1 -1;
#X obj 357 229 bng 30 250 50 0 empty empty empty 17 7 0 10 -260097
-1 -1;
#X obj 111 204 select hatswitch x y z rz button_2 button_5 button_6
, f 53;
#X msg 109 321 1;
#X obj 293 176 s val;
#X obj 337 365 r val;
#X obj 138 828 dac~, f 9;
#X obj 138 800 *~ 0.5;
#X obj 52 745 osc~ 440;
#X msg 144 715 0 250;
#X obj 159 749 line~;
#X obj 137 774 *~;
#X msg 208 725 1 30;
#X obj 144 689 sel 1;
#X obj 52 724 +~;
#X obj 25 390 s hatcent;
#X obj 69 412 s hatdown;
#X obj 144 666 r hatcent;
#X obj 207 705 r on, f 6;
#X obj 448 293 r val;
#X msg 136 276 1;
#X obj 114 599 - 127;
#X obj 114 621 * 0.0391;
#X obj 115 577 r val;
#X obj 162 337 s vib;
#X obj 114 670 * 0;
#X obj 142 642 r vib;
#X obj 117 438 s hatup;
#X obj 151 464 s hatleft;
#X obj 215 490 s hatright;
#X obj 25 651 r freq;
#X obj 25 691 line~;
#X msg 25 671 \$1 23;
#X obj 515 847 mtof, f 5;
#X obj 430 677 s on;
#X obj 362 550 r hatdown;
#X msg 169 273 1;
#X obj 169 293 s bendwhole;
#X obj 515 870 s freq;
#X msg 308 273 1;
#X obj 308 293 s downhalf;
#X msg 381 272 1;
#X obj 381 292 s uphalf;
#X msg 250 271 1;
#X obj 241 293 s Abutton;
#X obj 213 602 r Abutton;
#X obj 284 602 r val;
#X obj 213 626 expr (($i1 == 1) && ($f2 == 0.0)), f 17;
#X obj 72 698 *~ 7;
#X obj 72 645 osc~ 5;
#X obj 51 365 expr (($i1 == 1) && ($i2 == 8));
#X obj 93 390 expr (($i1 == 1) && ($i2 == 4));
#X obj 135 413 expr (($i1 == 1) && ($i2 == 0));
#X obj 171 441 expr (($i1 == 1) && ($i2 == 6));
#X obj 215 467 expr (($i1 == 1) && ($i2 == 2));
#X obj 162 314 expr ($i1 == 1) && (($f2 > 130)||($f2 < 120));
#X obj 1083 309 r b;
#X obj 1083 330 t b;
#X obj 1083 351 s re;
#X obj 434 550 r hatup;
#X msg 435 593 74, f 4;
#X msg 364 590 65;
#X msg 512 771 74, f 4;
#X msg 504 681 set \$1;
#X obj 362 571 sel 1;
#X obj 434 573 sel 1;
#X obj 495 572 sel 1;
#X obj 560 575 sel 1;
#X msg 497 591 71;
#X msg 561 595 69, f 4;
#X obj 495 551 r hatleft;
#X obj 560 552 r hatright;
#X obj 630 575 sel 1;
#X msg 631 595 62, f 4;
#X obj 629 552 r Abutton;
#X obj 213 680 sel 1;
#X floatatom 592 847 5 0 0 0 - - -;
#X obj 611 597 bng 15 250 50 0 empty empty empty 17 7 0 10 -262144
-1 -1;
#X obj 340 595 bng 15 250 50 0 empty empty empty 17 7 0 10 -262144
-1 -1;
#X obj 475 592 bng 15 250 50 0 empty empty empty 17 7 0 10 -262144
-1 -1;
#X obj 541 597 bng 15 250 50 0 empty empty empty 17 7 0 10 -262144
-1 -1;
#X obj 412 594 bng 15 250 50 0 empty empty empty 17 7 0 10 -262144
-1 -1;
#X obj 512 795 + 0, f 6;
#X floatatom 596 654 5 0 0 0 - - -;
#X obj 542 734 t b;
#X msg 755 469 -2;
#X msg 788 470 -1;
#X msg 825 469 0;
#X msg 859 469 1;
#X msg 890 469 2;
#X obj 780 101 r val;
#X obj 607 129 r bendwhole;
#X obj 531 189 expr (($i1 == 1) && ($i2 > 200)), f 17;
#X obj 755 185 expr (($i1 == 1) && ($i2 < 50)), f 17;
#X floatatom 792 221 5 0 0 0 - - -;
#X obj 938 106 r downhalf;
#X obj 1070 109 r uphalf;
#X floatatom 897 222 5 0 0 0 - - -;
#X floatatom 996 241 5 0 0 0 - - -;
#X obj 873 179 expr (($i1==1) && ($i2==1)), f 13;
#X obj 968 187 expr (($i1==1) && ($i2==1)), f 13;
#X floatatom 814 361 5 0 0 0 - - -;
#X floatatom 503 352 5 0 0 0 - - -;
#X obj 540 243 s b;
#X floatatom 546 221 5 0 0 0 - - -;
#X obj 753 227 s b;
#X obj 569 276 r re;
#X obj 900 262 r re;
#X obj 836 312 expr (($i1 == 1) && ($i2 == 0) && ($i3 == 0)), f 16
;
#X obj 530 309 expr (($i1 == 1) && ($i2 == 0) && ($i3 == 0)), f 18
;
#X obj 749 444 sel 1;
#X obj 890 442 sel 1;
#X obj 825 442 sel 1;
#X obj 774 533 s modification;
#X obj 658 222 expr (($i1==0)&&($i2==0)), f 11;
#X floatatom 623 262 5 0 0 0 - - -;
#X obj 840 232 s b;
#X obj 670 199 r re;
#X obj 957 244 s b;
#X obj 591 632 r modification;
#X obj 788 444 sel 1;
#X obj 858 443 sel 1;
#X obj 684 396 expr (($i1==0)&&($i2==0)&&($i3==0)&&($i4==0)), f 55
;
#X obj 888 533 s halfmod;
#X obj 516 820 + 0, f 9;
#X obj 599 696 r halfmod;
#X floatatom 609 726 5 0 0 0 - - -;
#X msg 947 474 0;
#X obj 951 442 sel 0;
#X obj 102 803 tgl 15 0 empty empty empty 17 7 0 10 -262144 -1 -1 1
1;
#X obj 95 36 r lb;
#X obj 60 784 loadbang;
#X obj 60 805 s lb;
#X floatatom 1072 247 5 0 0 0 - - -;
#X floatatom 1206 240 5 0 0 0 - - -;
#X obj 1077 181 expr !(($i1==1) && ($i2==0)), f 13;
#X obj 1169 179 expr !(($i1==1) && ($i2==0)), f 13;
#X obj 1099 227 s b;
#X obj 1167 228 s b;
#X obj 956 315 expr (($i1==1) && ($i2==1)), f 13;
#X obj 664 305 expr (($i1 == 1) && ($i2 == 0) && ($i3 == 0)), f 18
;
#X text 85 884 SYNTHESIZER;
#X text 503 899 FREQUENCY CALCULATOR;
#X text 808 575 PITCH MODIFIERS;
#X text 11 241 INTERFACE;
#X text 1059 748 Ocarina;
#X text 1072 761 of;
#X text 1066 776 Time;
#X connect 0 0 3 0;
#X connect 2 0 18 0;
#X connect 3 1 2 0;
#X connect 3 3 1 0;
#X connect 3 3 20 0;
#X connect 4 0 0 0;
#X connect 4 0 9 0;
#X connect 6 0 0 0;
#X connect 7 0 0 0;
#X connect 7 0 8 0;
#X connect 8 0 6 0;
#X connect 9 0 6 0;
#X connect 10 0 19 0;
#X connect 11 0 36 0;
#X connect 12 0 52 0;
#X connect 13 0 36 0;
#X connect 14 0 52 0;
#X connect 15 0 59 0;
#X connect 16 0 55 0;
#X connect 17 0 57 0;
#X connect 18 0 10 0;
#X connect 18 1 11 0;
#X connect 18 2 12 0;
#X connect 18 3 13 0;
#X connect 18 4 14 0;
#X connect 18 5 15 0;
#X connect 18 6 16 0;
#X connect 18 7 17 0;
#X connect 19 0 66 0;
#X connect 19 0 67 0;
#X connect 19 0 68 0;
#X connect 19 0 69 0;
#X connect 19 0 70 0;
#X connect 21 0 66 1;
#X connect 21 0 67 1;
#X connect 21 0 68 1;
#X connect 21 0 69 1;
#X connect 21 0 70 1;
#X connect 23 0 22 0;
#X connect 24 0 27 0;
#X connect 25 0 26 0;
#X connect 26 0 27 1;
#X connect 27 0 23 0;
#X connect 28 0 26 0;
#X connect 29 0 25 0;
#X connect 30 0 24 0;
#X connect 33 0 29 0;
#X connect 34 0 28 0;
#X connect 35 0 71 1;
#X connect 36 0 71 0;
#X connect 37 0 38 0;
#X connect 38 0 41 0;
#X connect 39 0 37 0;
#X connect 41 0 64 1;
#X connect 42 0 41 1;
#X connect 46 0 48 0;
#X connect 47 0 30 0;
#X connect 48 0 47 0;
#X connect 49 0 54 0;
#X connect 51 0 80 0;
#X connect 52 0 53 0;
#X connect 55 0 56 0;
#X connect 57 0 58 0;
#X connect 59 0 60 0;
#X connect 61 0 63 0;
#X connect 62 0 63 1;
#X connect 63 0 91 0;
#X connect 64 0 30 1;
#X connect 65 0 64 0;
#X connect 66 0 31 0;
#X connect 67 0 32 0;
#X connect 68 0 43 0;
#X connect 69 0 44 0;
#X connect 70 0 45 0;
#X connect 71 0 40 0;
#X connect 72 0 73 0;
#X connect 73 0 74 0;
#X connect 75 0 81 0;
#X connect 76 0 79 0;
#X connect 76 0 50 0;
#X connect 77 0 79 0;
#X connect 77 0 50 0;
#X connect 78 0 98 0;
#X connect 79 0 78 0;
#X connect 79 0 100 0;
#X connect 80 0 77 0;
#X connect 80 0 94 0;
#X connect 81 0 76 0;
#X connect 81 0 97 0;
#X connect 82 0 84 0;
#X connect 82 0 95 0;
#X connect 83 0 85 0;
#X connect 83 0 96 0;
#X connect 84 0 79 0;
#X connect 84 0 50 0;
#X connect 85 0 79 0;
#X connect 85 0 50 0;
#X connect 86 0 82 0;
#X connect 87 0 83 0;
#X connect 88 0 89 0;
#X connect 88 0 93 0;
#X connect 89 0 79 0;
#X connect 89 0 50 0;
#X connect 90 0 88 0;
#X connect 91 0 25 0;
#X connect 98 0 140 0;
#X connect 100 0 78 0;
#X connect 101 0 129 0;
#X connect 102 0 139 0;
#X connect 103 0 129 0;
#X connect 103 0 139 0;
#X connect 104 0 139 0;
#X connect 105 0 129 0;
#X connect 106 0 109 1;
#X connect 106 0 108 1;
#X connect 106 0 115 1;
#X connect 106 0 116 1;
#X connect 106 0 151 1;
#X connect 106 0 152 1;
#X connect 107 0 109 0;
#X connect 107 0 108 0;
#X connect 108 0 119 0;
#X connect 108 0 120 0;
#X connect 108 0 130 0;
#X connect 108 0 125 0;
#X connect 109 0 110 0;
#X connect 109 0 121 0;
#X connect 109 0 130 1;
#X connect 109 0 155 0;
#X connect 109 0 138 1;
#X connect 109 0 156 0;
#X connect 111 0 115 0;
#X connect 111 0 151 0;
#X connect 112 0 116 0;
#X connect 112 0 152 0;
#X connect 115 0 113 0;
#X connect 115 0 124 1;
#X connect 115 0 132 0;
#X connect 115 0 138 2;
#X connect 115 0 136 0;
#X connect 115 0 125 1;
#X connect 115 0 156 2;
#X connect 116 0 114 0;
#X connect 116 0 124 2;
#X connect 116 0 134 0;
#X connect 116 0 138 3;
#X connect 116 0 137 0;
#X connect 116 0 125 2;
#X connect 116 0 144 0;
#X connect 116 0 155 1;
#X connect 116 0 156 1;
#X connect 122 0 125 0;
#X connect 122 0 156 0;
#X connect 123 0 124 0;
#X connect 123 0 155 0;
#X connect 124 0 117 0;
#X connect 124 0 127 0;
#X connect 125 0 118 0;
#X connect 125 0 138 0;
#X connect 125 0 126 0;
#X connect 126 0 101 0;
#X connect 127 0 105 0;
#X connect 128 0 103 0;
#X connect 130 0 131 0;
#X connect 133 0 130 0;
#X connect 135 0 78 0;
#X connect 135 0 99 0;
#X connect 135 0 98 1;
#X connect 135 0 100 0;
#X connect 136 0 102 0;
#X connect 137 0 104 0;
#X connect 138 0 128 0;
#X connect 140 0 49 0;
#X connect 140 0 92 0;
#X connect 141 0 140 1;
#X connect 141 0 100 0;
#X connect 141 0 142 0;
#X connect 143 0 139 0;
#X connect 144 0 143 0;
#X connect 145 0 22 0;
#X connect 146 0 4 0;
#X connect 147 0 148 0;
#X connect 147 0 145 0;
#X connect 151 0 149 0;
#X connect 151 0 153 0;
#X connect 151 0 144 0;
#X connect 152 0 150 0;
#X connect 152 0 154 0;
#X connect 155 0 127 0;
#X connect 155 0 137 0;
#X connect 156 0 127 0;
