#N canvas 0 27 1920 1013 10;
#X obj 85 87 hidio;
#X floatatom 310 126 5 0 0 1 value - -;
#X symbolatom 85 141 15 0 0 1 event_code - -;
#X obj 85 113 unpack symbol symbol float float;
#X msg 88 22 open 0x046d 0xc216;
#X text 117 6 logitech F310;
#X obj 94 64 tgl 10 0 empty empty empty 17 7 0 10 -262144 -1 -1 1 1
;
#X msg 45 22 close;
#X msg 70 45 0;
#X msg 101 44 1;
#X obj 95 192 bng 30 250 50 0 empty empty empty 17 7 0 10 -260097 -1
-1;
#X obj 129 192 bng 30 250 50 0 empty empty empty 17 7 0 10 -260097
-1 -1;
#X obj 163 192 bng 30 250 50 0 empty empty empty 17 7 0 10 -260097
-1 -1;
#X obj 197 192 bng 30 250 50 0 empty empty empty 17 7 0 10 -260097
-1 -1;
#X obj 231 192 bng 30 250 50 0 empty empty empty 17 7 0 10 -260097
-1 -1;
#X obj 264 192 bng 30 250 50 0 empty empty empty 17 7 0 10 -260097
-1 -1;
#X obj 298 191 bng 30 250 50 0 empty empty empty 17 7 0 10 -260097
-1 -1;
#X obj 332 191 bng 30 250 50 0 empty empty empty 17 7 0 10 -260097
-1 -1;
#X obj 86 166 select hatswitch x y z rz button_2 button_5 button_6
, f 53;
#X msg 84 283 1;
#X obj 268 138 s val;
#X obj 312 327 r val;
#X obj 119 978 dac~, f 9;
#X obj 119 950 *~ 0.5;
#X obj 33 895 osc~ 440;
#X msg 125 865 0 250;
#X obj 140 899 line~;
#X obj 118 924 *~;
#X msg 194 862 1 30;
#X obj 125 839 sel 1;
#X obj 33 874 +~;
#X obj 0 352 s hatcent;
#X obj 44 374 s hatdown;
#X obj 125 816 r hatcent;
#X obj 193 842 r on, f 6;
#X obj 423 255 r val;
#X msg 111 238 1;
#X obj 95 749 - 127;
#X obj 95 771 * 0.0391;
#X obj 96 727 r val;
#X obj 137 299 s vib;
#X obj 95 820 * 0;
#X obj 123 792 r vib;
#X obj 92 400 s hatup;
#X obj 126 426 s hatleft;
#X obj 190 452 s hatright;
#X obj 1104 979 s freq;
#X obj 6 801 r freq;
#X obj 6 841 line~;
#X msg 6 821 \$1 23;
#X obj 428 102 expr (($i1 == 1) && ($f2 < 50));
#X obj 674 55 r val;
#X obj 286 958 mtof, f 7;
#X obj 287 933 + 0;
#X msg 304 887 2, f 2;
#X msg 334 881 0;
#X obj 265 836 sel 1;
#X obj 269 864 s on;
#X obj 264 812 r hatdown;
#X msg 265 898 65;
#X obj 724 140 r hatdown;
#X obj 506 216 s up_hatdown;
#X obj 506 184 sel 1;
#X obj 325 812 r up_hatdown;
#X obj 341 831 r norm_hatdown;
#X obj 597 208 sel 1;
#X obj 597 240 s norm_hatdown;
#X obj 939 211 r val;
#X obj 814 320 sel 1;
#X obj 905 344 sel 1;
#X obj 1032 263 r hatup;
#X obj 813 354 s up_hatup;
#X obj 904 374 s norm_hatup;
#X msg 144 235 1;
#X obj 593 267 r val;
#X obj 486 384 sel 1;
#X obj 577 408 sel 1;
#X obj 792 411 expr (($i1 == 1) && ($f2 < 50)), f 17;
#X obj 1018 373 r val;
#X obj 962 409 expr (($i1 == 1) && ($f2 >= 50) && ($f2 < 130)), f
16;
#X obj 841 476 sel 1;
#X obj 932 500 sel 1;
#X obj 709 330 r hatleft;
#X obj 890 442 r hatright;
#X obj 931 530 s norm_hatright;
#X obj 840 510 s up_hatright;
#X obj 577 440 s norm_hatleft;
#X obj 486 416 s up_hatleft;
#X obj 844 966 mtof, f 7;
#X obj 844 936 + 0;
#X msg 860 898 2, f 2;
#X msg 890 892 0;
#X obj 821 847 sel 1;
#X obj 792 876 s on;
#X obj 1102 955 mtof, f 7;
#X obj 1102 933 + 0;
#X msg 1118 895 2, f 2;
#X msg 1148 889 0;
#X obj 1079 844 sel 1;
#X obj 1050 873 s on;
#X obj 881 823 r up_hatleft;
#X obj 898 853 r norm_hatleft;
#X obj 820 823 r hatleft;
#X obj 1078 820 r hatright;
#X obj 1149 820 r up_hatright;
#X obj 1158 844 r norm_hatright;
#X msg 821 909 71;
#X msg 1079 906 69;
#X obj 144 255 s bendwhole;
#X obj 508 270 r bendwhole;
#X obj 499 49 r bendwhole;
#X obj 794 212 r bendwhole;
#X obj 808 384 r bendwhole;
#X obj 845 989 s freq;
#X obj 287 983 s freq;
#X obj 1323 75 r hatdown;
#X obj 1233 133 sel 1;
#X obj 1759 181 r val;
#X obj 1658 267 sel 1;
#X obj 1778 221 r hatup;
#X obj 1215 231 r val;
#X obj 1145 331 sel 1;
#X obj 1569 262 r val;
#X obj 1394 370 sel 1;
#X obj 1158 286 r hatleft;
#X obj 1540 312 r hatright;
#X obj 1131 229 r bendwhole;
#X obj 1203 37 r bendwhole;
#X obj 1652 178 r bendwhole;
#X obj 1357 267 r bendwhole;
#X obj 1370 292 expr (($i1 == 1) && ($f2 > 200));
#X obj 1128 256 expr (($i1 == 1) && ($f2 > 200)), f 18;
#X obj 1145 353 s dn_hatleft;
#X obj 1393 404 s dn_hatright;
#X obj 1657 294 s dn_hatup;
#X obj 1233 157 s dn_hatdown;
#X obj 359 850 r dn_hatdown;
#X msg 373 875 -2;
#X obj 1294 40 r val;
#X msg 939 916 -2;
#X obj 942 894 r dn_hatleft;
#X msg 1189 909 -2;
#X obj 1192 887 r dn_hatright;
#X msg 283 235 1;
#X obj 283 255 s downhalf;
#X msg 356 234 1;
#X obj 356 254 s uphalf;
#X obj 49 506 r downhalf;
#X obj 128 515 r val;
#X msg 225 233 1;
#X obj 216 255 s Abutton;
#X obj 1480 975 s freq;
#X obj 1478 951 mtof, f 7;
#X obj 1478 929 + 0;
#X msg 1494 891 2, f 2;
#X msg 1524 885 0;
#X obj 1451 857 sel 1;
#X obj 1405 843 s on;
#X msg 1565 905 -2;
#X obj 1463 761 r Abutton;
#X obj 1525 816 r up_Abutton;
#X obj 1534 840 r norm_Abutton;
#X obj 1568 883 r dn_Abutton;
#X msg 1455 902 62;
#X obj 156 731 r Abutton;
#X obj 223 732 r val;
#X obj 1526 764 r val;
#X obj 1408 818 sel 1;
#X obj 122 655 s norm_hatdown;
#X obj 1 620 s dnhalf_hatdown;
#X obj 296 741 r dnhalf_hatdown;
#X msg 968 820 -1;
#X obj 969 799 r dnhalf_hatleft;
#X msg 1241 819 -1;
#X msg 1501 731 -1;
#X obj 1471 695 r dnhalf_Abutton;
#X obj 1242 798 r dnhalf_hatright;
#X msg 348 786 1;
#X obj 344 762 r uphalf_hatdown;
#X msg 993 866 1;
#X obj 990 839 r uphalf_hatleft;
#X msg 1278 852 1;
#X obj 1275 825 r uphalf_hatright;
#X msg 1573 763 1;
#X obj 1577 738 r uphalf_Abutton;
#X obj 138 545 r hatdown;
#X obj 306 512 r downhalf;
#X obj 405 511 r val;
#X obj 366 540 r hatup;
#X obj 269 632 s dnhalf_hatup;
#X msg 298 777 -1;
#X obj 65 594 sel 1;
#X obj 120 630 sel 1;
#X obj 318 609 sel 1;
#X obj 375 635 sel 1;
#X obj 121 566 expr (($i1 == 1) && ($f2 == 0)), f 16;
#X obj 498 949 mtof, f 7;
#X obj 498 924 + 0;
#X msg 509 874 2, f 2;
#X msg 545 872 0;
#X obj 476 827 sel 1;
#X obj 481 855 s on;
#X obj 499 974 s freq;
#X msg 581 894 -2;
#X msg 560 777 1;
#X msg 531 758 -1;
#X msg 465 897 74;
#X obj 530 731 r dnhalf_hatup;
#X obj 563 752 r uphalf_hatup;
#X obj 475 803 r hatup;
#X obj 536 803 r up_hatup;
#X obj 554 830 r norm_hatup;
#X obj 584 872 r dn_hatup;
#X obj 156 755 expr (($i1 == 1) && ($f2 == 0.0)), f 17;
#X obj 374 656 s norm_hatup;
#X obj 368 565 expr (($i1 == 1) && ($f2 == 0)), f 16;
#X obj 540 505 r downhalf;
#X obj 631 507 r val;
#X obj 859 572 r downhalf;
#X obj 981 578 r val;
#X obj 547 606 sel 1;
#X obj 612 629 sel 1;
#X obj 846 688 sel 1;
#X obj 920 700 sel 1;
#X obj 594 564 expr (($i1 == 1) && ($f2 == 0)), f 16;
#X obj 913 630 expr (($i1 == 1) && ($f2 == 0)), f 16;
#X obj 608 538 r hatleft;
#X obj 911 602 r hatright;
#X obj 498 632 s dnhalf_hatleft;
#X obj 614 654 s norm_hatleft;
#X obj 806 714 s dnhalf_hatright;
#X obj 919 721 s norm_hatright;
#X obj 1168 600 r val;
#X obj 1150 724 s norm_hatdown;
#X obj 1073 626 r hatdown;
#X obj 1086 682 sel 1;
#X obj 1151 699 sel 1;
#X obj 1157 640 expr (($i1 == 1) && ($f2 == 0)), f 16;
#X obj 1093 584 r uphalf;
#X obj 1039 708 s uphalf_hatdown;
#X obj 1320 435 r val;
#X obj 1191 460 expr (($i1 == 1) && ($f2 == 1));
#X obj 1193 540 sel 1;
#X obj 1302 580 sel 1;
#X obj 1229 433 r uphalf;
#X obj 1558 433 r val;
#X obj 1431 538 sel 1;
#X obj 1540 578 sel 1;
#X obj 1546 504 expr (($i1 == 1) && ($f2 == 0)), f 16;
#X obj 1467 431 r uphalf;
#X obj 1766 341 r val;
#X obj 1639 446 sel 1;
#X obj 1748 486 sel 1;
#X obj 1675 339 r uphalf;
#X obj 1188 560 s uphalf_hatup;
#X obj 1295 624 s norm_hatup;
#X obj 1325 485 r hatup;
#X obj 1563 483 r hatleft;
#X obj 1426 558 s uphalf_hatleft;
#X obj 1542 602 s norm_hatleft;
#X obj 1750 511 s norm_hatright;
#X obj 1771 391 r hatright;
#X obj 1634 466 s uphalf_hatright;
#X obj 1774 573 r val;
#X obj 1647 678 sel 1;
#X obj 1756 718 sel 1;
#X obj 1683 571 r uphalf;
#X obj 1642 698 s uphalf_Abutton;
#X obj 1758 743 s norm_Abutton;
#X obj 1779 623 r Abutton;
#X obj 1787 789 r val;
#X obj 1660 894 sel 1;
#X obj 1771 947 sel 1;
#X obj 1773 972 s norm_Abutton;
#X obj 1792 839 r Abutton;
#X obj 1655 914 s dnhalf_Abutton;
#X obj 1744 769 r downhalf;
#X obj 1028 37 r val;
#X obj 903 146 sel 1;
#X obj 994 170 sel 1;
#X obj 883 38 r bendwhole;
#X obj 902 180 s up_Abutton;
#X obj 993 200 s norm_Abutton;
#X obj 1121 89 r Abutton;
#X obj 1604 66 r val;
#X obj 1419 181 sel 1;
#X obj 1469 53 r bendwhole;
#X obj 1541 125 r Abutton;
#X obj 1419 213 s dn_Abutton;
#X obj 1343 753 sel 1;
#X msg 1365 775 -3;
#X msg 1596 937 1;
#X msg 1369 678 1;
#X obj 1774 895 expr (($i1 == 1) && ($i2 == 1) && $i3 == 0), f 18
;
#X obj 1510 240 s normallowC;
#X obj 1485 656 r normallowC;
#X obj 1507 216 sel 1;
#X obj 1506 181 expr (($i1 == 1) && ($i2 == 0)), f 18;
#X obj 1465 126 r downhalf;
#X obj 53 848 *~ 7;
#X obj 53 795 osc~ 5;
#X msg 639 783 1;
#X msg 637 837 3;
#X obj 852 606 &;
#X obj 554 548 &;
#X obj 610 600 &;
#X obj 1042 608 &;
#X obj 1155 675 &, f 5;
#X obj 919 667 &, f 4;
#X obj 839 654 &, f 4;
#X obj 1069 657 &;
#X obj 1321 717 &, f 18;
#X obj 322 586 &;
#X obj 328 564 &;
#X obj 67 547 &;
#X obj 574 383 &;
#X obj 484 356 &;
#X obj 594 183 &;
#X obj 504 156 &;
#X obj 991 145 &;
#X obj 901 118 &;
#X obj 1221 100 &, f 18;
#X obj 1417 153 &;
#X obj 1656 239 &;
#X obj 1753 447 &, f 18;
#X obj 1635 413 &, f 18;
#X obj 1637 366 &;
#X obj 1429 458 &;
#X obj 1427 505 &, f 18;
#X obj 1545 539 &, f 18;
#X obj 1645 598 &;
#X obj 1761 679 &, f 18;
#X obj 1643 645 &, f 18;
#X obj 1656 861 &, f 18;
#X obj 1658 814 &;
#X obj 1404 792 &;
#X obj 556 574 &;
#X obj 374 602 &, f 18;
#X obj 120 601 &, f 4;
#X obj 65 568 &, f 4;
#X obj 812 292 &;
#X obj 902 319 &;
#X obj 1143 308 &;
#X obj 1392 342 &;
#X obj 1189 507 &, f 11;
#X obj 1307 541 &, f 11;
#X floatatom 578 929 5 0 0 0 - - -;
#X obj 26 327 expr (($i1 == 1) && ($i2 == 8));
#X obj 68 352 expr (($i1 == 1) && ($i2 == 4));
#X obj 110 375 expr (($i1 == 1) && ($i2 == 0));
#X obj 146 403 expr (($i1 == 1) && ($i2 == 6));
#X obj 190 429 expr (($i1 == 1) && ($i2 == 2));
#X obj 1775 860 expr (($i1 == 1) && ($i2 == 0)), f 16;
#X obj 1762 644 expr (($i1 == 1) && ($i2 == 0)), f 16;
#X obj 1754 412 expr (($i1 == 1) && ($i2 == 0)), f 16;
#X obj 1654 205 expr (($i1 == 1) && ($i2 > 200)), f 17;
#X obj 1402 101 expr (($i1 == 1) && ($i2 > 200));
#X obj 1207 64 expr (($i1 == 1) && ($i2 > 200)), f 17;
#X obj 981 72 expr (($i1 == 1) && ($i2 >= 50) && ($i2 < 130)), f 16
;
#X obj 870 78 expr (($i1 == 1) && ($i2 < 50)), f 17;
#X obj 624 101 expr (($i1 == 1) && ($i2 >= 50) && ($i2 < 130)), f
16;
#X obj 892 246 expr (($i1 == 1) && ($i2 >= 50) && ($i2 < 130)), f
16;
#X obj 781 252 expr (($i1 == 1) && ($i2 < 50)), f 17;
#X obj 595 308 expr (($i1 == 1) && ($i2 >= 50) && ($i2 < 130)), f
16;
#X obj 484 318 expr (($i1 == 1) && ($i2 < 50)), f 17;
#X obj 137 276 expr ($i1 == 1) && (($f2 > 130)||($f2 < 120));
#X obj 1308 506 expr (($i1 == 1) && ($i2 == 0)), f 16;
#X obj 929 475 &;
#X obj 839 448 &;
#X obj 643 805 &;
#X connect 0 0 3 0;
#X connect 2 0 18 0;
#X connect 3 1 2 0;
#X connect 3 3 1 0;
#X connect 3 3 20 0;
#X connect 4 0 0 0;
#X connect 4 0 9 0;
#X connect 6 0 0 0;
#X connect 7 0 0 0;
#X connect 7 0 8 0;
#X connect 8 0 6 0;
#X connect 9 0 6 0;
#X connect 10 0 19 0;
#X connect 11 0 36 0;
#X connect 12 0 73 0;
#X connect 13 0 36 0;
#X connect 14 0 73 0;
#X connect 15 0 149 0;
#X connect 16 0 143 0;
#X connect 17 0 145 0;
#X connect 18 0 10 0;
#X connect 18 1 11 0;
#X connect 18 2 12 0;
#X connect 18 3 13 0;
#X connect 18 4 14 0;
#X connect 18 5 15 0;
#X connect 18 6 16 0;
#X connect 18 7 17 0;
#X connect 19 0 347 0;
#X connect 19 0 348 0;
#X connect 19 0 349 0;
#X connect 19 0 350 0;
#X connect 19 0 351 0;
#X connect 21 0 347 1;
#X connect 21 0 348 1;
#X connect 21 0 349 1;
#X connect 21 0 350 1;
#X connect 21 0 351 1;
#X connect 23 0 22 0;
#X connect 24 0 27 0;
#X connect 25 0 26 0;
#X connect 26 0 27 1;
#X connect 27 0 23 0;
#X connect 28 0 26 0;
#X connect 29 0 25 0;
#X connect 30 0 24 0;
#X connect 33 0 29 0;
#X connect 34 0 28 0;
#X connect 35 0 365 1;
#X connect 36 0 365 0;
#X connect 37 0 38 0;
#X connect 38 0 41 0;
#X connect 39 0 37 0;
#X connect 41 0 299 1;
#X connect 42 0 41 1;
#X connect 47 0 49 0;
#X connect 48 0 30 0;
#X connect 49 0 48 0;
#X connect 50 0 318 0;
#X connect 51 0 50 1;
#X connect 51 0 360 1;
#X connect 52 0 114 0;
#X connect 53 0 52 0;
#X connect 54 0 53 1;
#X connect 55 0 53 1;
#X connect 56 0 57 0;
#X connect 56 0 59 0;
#X connect 58 0 56 0;
#X connect 59 0 53 0;
#X connect 60 0 317 1;
#X connect 60 0 318 1;
#X connect 62 0 61 0;
#X connect 63 0 54 0;
#X connect 63 0 59 0;
#X connect 64 0 55 0;
#X connect 64 0 59 0;
#X connect 65 0 66 0;
#X connect 67 0 361 1;
#X connect 67 0 362 1;
#X connect 68 0 71 0;
#X connect 69 0 72 0;
#X connect 70 0 340 1;
#X connect 70 0 341 1;
#X connect 73 0 108 0;
#X connect 74 0 363 1;
#X connect 74 0 364 1;
#X connect 75 0 87 0;
#X connect 76 0 86 0;
#X connect 77 0 368 0;
#X connect 78 0 77 1;
#X connect 78 0 79 1;
#X connect 79 0 367 0;
#X connect 80 0 85 0;
#X connect 81 0 84 0;
#X connect 82 0 315 1;
#X connect 82 0 316 1;
#X connect 83 0 367 1;
#X connect 83 0 368 1;
#X connect 88 0 113 0;
#X connect 89 0 88 0;
#X connect 90 0 89 1;
#X connect 91 0 89 1;
#X connect 92 0 93 0;
#X connect 92 0 106 0;
#X connect 94 0 46 0;
#X connect 95 0 94 0;
#X connect 96 0 95 1;
#X connect 97 0 95 1;
#X connect 98 0 99 0;
#X connect 98 0 107 0;
#X connect 100 0 90 0;
#X connect 100 0 106 0;
#X connect 101 0 91 0;
#X connect 101 0 106 0;
#X connect 102 0 92 0;
#X connect 103 0 98 0;
#X connect 104 0 96 0;
#X connect 104 0 107 0;
#X connect 105 0 97 0;
#X connect 105 0 107 0;
#X connect 106 0 89 0;
#X connect 107 0 95 0;
#X connect 109 0 363 0;
#X connect 109 0 364 0;
#X connect 110 0 50 0;
#X connect 110 0 360 0;
#X connect 111 0 361 0;
#X connect 111 0 362 0;
#X connect 112 0 77 0;
#X connect 112 0 79 0;
#X connect 115 0 321 1;
#X connect 116 0 135 0;
#X connect 117 0 355 1;
#X connect 118 0 134 0;
#X connect 119 0 323 1;
#X connect 120 0 131 1;
#X connect 121 0 132 0;
#X connect 122 0 130 1;
#X connect 123 0 133 0;
#X connect 124 0 342 1;
#X connect 125 0 343 1;
#X connect 126 0 131 0;
#X connect 127 0 357 0;
#X connect 128 0 355 0;
#X connect 129 0 130 0;
#X connect 130 0 343 0;
#X connect 131 0 342 0;
#X connect 136 0 137 0;
#X connect 136 0 59 0;
#X connect 137 0 53 1;
#X connect 138 0 357 1;
#X connect 139 0 89 1;
#X connect 139 0 106 0;
#X connect 140 0 139 0;
#X connect 141 0 95 1;
#X connect 141 0 107 0;
#X connect 142 0 141 0;
#X connect 142 0 95 1;
#X connect 142 0 107 0;
#X connect 143 0 144 0;
#X connect 145 0 146 0;
#X connect 147 0 195 0;
#X connect 147 0 314 0;
#X connect 148 0 195 1;
#X connect 148 0 314 1;
#X connect 149 0 150 0;
#X connect 152 0 151 0;
#X connect 153 0 152 0;
#X connect 154 0 153 1;
#X connect 155 0 153 1;
#X connect 156 0 163 0;
#X connect 158 0 153 1;
#X connect 158 0 163 0;
#X connect 159 0 156 0;
#X connect 159 0 335 0;
#X connect 160 0 154 0;
#X connect 160 0 163 0;
#X connect 161 0 155 0;
#X connect 161 0 163 0;
#X connect 162 0 158 0;
#X connect 162 0 153 1;
#X connect 162 0 163 0;
#X connect 162 0 291 0;
#X connect 163 0 153 0;
#X connect 164 0 213 0;
#X connect 165 0 213 1;
#X connect 166 0 335 1;
#X connect 167 0 157 0;
#X connect 170 0 190 0;
#X connect 171 0 89 1;
#X connect 171 0 106 0;
#X connect 172 0 171 0;
#X connect 173 0 95 1;
#X connect 173 0 107 0;
#X connect 174 0 153 1;
#X connect 174 0 163 0;
#X connect 175 0 174 0;
#X connect 175 0 292 0;
#X connect 176 0 173 0;
#X connect 177 0 53 1;
#X connect 177 0 59 0;
#X connect 178 0 177 0;
#X connect 179 0 89 1;
#X connect 179 0 106 0;
#X connect 180 0 179 0;
#X connect 181 0 95 1;
#X connect 181 0 107 0;
#X connect 182 0 181 0;
#X connect 183 0 153 1;
#X connect 183 0 163 0;
#X connect 184 0 183 0;
#X connect 185 0 338 1;
#X connect 185 0 339 1;
#X connect 186 0 215 0;
#X connect 186 0 313 0;
#X connect 187 0 215 1;
#X connect 187 0 313 1;
#X connect 188 0 312 1;
#X connect 188 0 337 1;
#X connect 190 0 53 1;
#X connect 190 0 59 0;
#X connect 191 0 169 0;
#X connect 192 0 168 0;
#X connect 193 0 189 0;
#X connect 194 0 214 0;
#X connect 195 0 338 0;
#X connect 196 0 202 0;
#X connect 197 0 196 0;
#X connect 198 0 197 1;
#X connect 199 0 197 1;
#X connect 200 0 201 0;
#X connect 200 0 206 0;
#X connect 203 0 197 1;
#X connect 204 0 197 1;
#X connect 204 0 206 0;
#X connect 204 0 369 0;
#X connect 205 0 197 1;
#X connect 205 0 206 0;
#X connect 206 0 197 0;
#X connect 207 0 205 0;
#X connect 208 0 204 0;
#X connect 209 0 200 0;
#X connect 210 0 198 0;
#X connect 210 0 206 0;
#X connect 210 0 301 0;
#X connect 210 0 346 0;
#X connect 211 0 199 0;
#X connect 211 0 206 0;
#X connect 212 0 203 0;
#X connect 212 0 206 0;
#X connect 213 0 29 0;
#X connect 215 0 337 0;
#X connect 216 0 224 0;
#X connect 216 0 304 0;
#X connect 217 0 224 1;
#X connect 217 0 304 1;
#X connect 218 0 225 0;
#X connect 218 0 303 0;
#X connect 219 0 225 1;
#X connect 219 0 303 1;
#X connect 220 0 228 0;
#X connect 221 0 229 0;
#X connect 222 0 230 0;
#X connect 223 0 231 0;
#X connect 224 0 305 0;
#X connect 225 0 308 0;
#X connect 226 0 305 1;
#X connect 226 0 336 1;
#X connect 227 0 308 1;
#X connect 227 0 309 1;
#X connect 232 0 237 1;
#X connect 232 0 306 1;
#X connect 234 0 307 1;
#X connect 234 0 310 1;
#X connect 235 0 239 0;
#X connect 236 0 233 0;
#X connect 237 0 307 0;
#X connect 238 0 237 0;
#X connect 238 0 306 0;
#X connect 240 0 241 1;
#X connect 240 0 366 1;
#X connect 241 0 344 0;
#X connect 242 0 254 0;
#X connect 243 0 255 0;
#X connect 244 0 241 0;
#X connect 244 0 366 0;
#X connect 245 0 248 1;
#X connect 245 0 327 1;
#X connect 246 0 258 0;
#X connect 247 0 259 0;
#X connect 248 0 329 0;
#X connect 249 0 248 0;
#X connect 249 0 327 0;
#X connect 250 0 326 1;
#X connect 250 0 354 1;
#X connect 251 0 262 0;
#X connect 252 0 260 0;
#X connect 253 0 326 0;
#X connect 253 0 354 0;
#X connect 256 0 344 1;
#X connect 256 0 345 1;
#X connect 257 0 328 1;
#X connect 257 0 329 1;
#X connect 261 0 324 1;
#X connect 261 0 325 1;
#X connect 263 0 330 1;
#X connect 263 0 353 1;
#X connect 264 0 267 0;
#X connect 265 0 268 0;
#X connect 266 0 330 0;
#X connect 266 0 353 0;
#X connect 269 0 331 1;
#X connect 269 0 332 1;
#X connect 270 0 334 1;
#X connect 270 0 352 1;
#X connect 271 0 275 0;
#X connect 272 0 273 0;
#X connect 274 0 293 1;
#X connect 274 0 333 1;
#X connect 276 0 293 2;
#X connect 276 0 334 0;
#X connect 276 0 352 0;
#X connect 277 0 358 1;
#X connect 277 0 359 1;
#X connect 278 0 281 0;
#X connect 279 0 282 0;
#X connect 280 0 358 0;
#X connect 280 0 359 0;
#X connect 283 0 319 1;
#X connect 283 0 320 1;
#X connect 284 0 297 1;
#X connect 284 0 356 1;
#X connect 285 0 288 0;
#X connect 286 0 356 0;
#X connect 287 0 322 1;
#X connect 289 0 290 0;
#X connect 290 0 153 1;
#X connect 290 0 163 0;
#X connect 291 0 311 1;
#X connect 292 0 311 0;
#X connect 293 0 272 0;
#X connect 295 0 158 0;
#X connect 295 0 163 0;
#X connect 296 0 294 0;
#X connect 297 0 296 0;
#X connect 298 0 297 0;
#X connect 299 0 30 1;
#X connect 300 0 299 0;
#X connect 301 0 369 1;
#X connect 302 0 197 1;
#X connect 302 0 206 0;
#X connect 303 0 309 0;
#X connect 304 0 336 0;
#X connect 305 0 221 0;
#X connect 306 0 310 0;
#X connect 307 0 236 0;
#X connect 308 0 223 0;
#X connect 309 0 222 0;
#X connect 310 0 235 0;
#X connect 311 0 289 0;
#X connect 312 0 193 0;
#X connect 313 0 312 0;
#X connect 314 0 339 0;
#X connect 315 0 76 0;
#X connect 316 0 75 0;
#X connect 317 0 65 0;
#X connect 318 0 62 0;
#X connect 319 0 279 0;
#X connect 320 0 278 0;
#X connect 321 0 116 0;
#X connect 322 0 285 0;
#X connect 323 0 118 0;
#X connect 324 0 252 0;
#X connect 325 0 251 0;
#X connect 326 0 325 0;
#X connect 327 0 328 0;
#X connect 328 0 246 0;
#X connect 329 0 247 0;
#X connect 330 0 332 0;
#X connect 331 0 265 0;
#X connect 332 0 264 0;
#X connect 333 0 271 0;
#X connect 334 0 333 0;
#X connect 335 0 167 0;
#X connect 336 0 220 0;
#X connect 337 0 194 0;
#X connect 338 0 192 0;
#X connect 339 0 191 0;
#X connect 340 0 68 0;
#X connect 341 0 69 0;
#X connect 342 0 121 0;
#X connect 343 0 123 0;
#X connect 344 0 242 0;
#X connect 345 0 243 0;
#X connect 347 0 31 0;
#X connect 348 0 32 0;
#X connect 349 0 43 0;
#X connect 350 0 44 0;
#X connect 351 0 45 0;
#X connect 352 0 293 0;
#X connect 353 0 331 0;
#X connect 354 0 324 0;
#X connect 355 0 323 0;
#X connect 356 0 322 0;
#X connect 357 0 321 0;
#X connect 358 0 319 0;
#X connect 359 0 320 0;
#X connect 360 0 317 0;
#X connect 361 0 341 0;
#X connect 362 0 340 0;
#X connect 363 0 315 0;
#X connect 364 0 316 0;
#X connect 365 0 40 0;
#X connect 366 0 345 0;
#X connect 367 0 81 0;
#X connect 368 0 80 0;
#X connect 369 0 302 0;
