#N canvas 630 261 1143 702 10;
#X obj 19 672 Gem;
#X obj 919 657 gemwin 40;
#X msg 918 635 reset \, dimen 500 500 \, create \, 1;
#X obj 162 110 part_head;
#X obj 205 459 part_draw;
#X msg 225 110 point;
#X obj 224 14 gemhead;
#X msg 93 241 draw point;
#X obj 20 16 loadbang;
#X obj 19 39 s lb;
#X obj 198 185 r lb;
#X obj 264 60 r lb;
#X obj 914 612 r lb;
#X obj 330 224 pack f f f;
#X obj 259 159 random 32000;
#X obj 265 181 / 32000;
#X obj 349 158 random 32000;
#X obj 356 181 / 32000;
#X obj 435 183 random 32000;
#X obj 439 208 / 32000;
#X obj 315 106 metro 10;
#X obj 313 85 tgl 15 0 empty empty empty 17 7 0 10 -262144 -1 -1 1
1;
#X obj 349 136 delay 30;
#X obj 433 157 delay 30;
#X obj 200 256 part_targetcolor;
#X obj 166 139 part_source 200;
#X obj 174 217 scale 10;
#X msg 241 222 10;
#X obj 165 164 part_killold 2;
#X obj 641 96 part_head;
#X obj 684 445 part_draw;
#X msg 704 96 point;
#X msg 572 227 draw point;
#X obj 677 171 r lb;
#X obj 743 46 r lb;
#X obj 809 210 pack f f f;
#X obj 738 145 random 32000;
#X obj 744 167 / 32000;
#X obj 828 144 random 32000;
#X obj 835 167 / 32000;
#X obj 914 169 random 32000;
#X obj 918 194 / 32000;
#X obj 794 92 metro 10;
#X obj 792 71 tgl 15 0 empty empty empty 17 7 0 10 -262144 -1 -1 1
1;
#X obj 828 122 delay 30;
#X obj 912 143 delay 30;
#X obj 679 242 part_targetcolor;
#X obj 645 125 part_source 200;
#X obj 653 203 scale 10;
#X msg 720 208 10;
#X obj 644 150 part_killold 2;
#X obj 646 52 gemhead 51;
#X connect 2 0 1 0;
#X connect 3 0 25 0;
#X connect 5 0 25 2;
#X connect 6 0 3 0;
#X connect 7 0 4 0;
#X connect 8 0 9 0;
#X connect 10 0 7 0;
#X connect 10 0 27 0;
#X connect 11 0 5 0;
#X connect 11 0 21 0;
#X connect 12 0 2 0;
#X connect 13 0 24 1;
#X connect 14 0 15 0;
#X connect 15 0 13 0;
#X connect 16 0 17 0;
#X connect 17 0 13 1;
#X connect 18 0 19 0;
#X connect 19 0 13 2;
#X connect 20 0 14 0;
#X connect 20 0 22 0;
#X connect 21 0 20 0;
#X connect 22 0 16 0;
#X connect 22 0 23 0;
#X connect 23 0 18 0;
#X connect 24 0 4 0;
#X connect 25 0 28 0;
#X connect 26 0 24 0;
#X connect 27 0 24 2;
#X connect 28 0 26 0;
#X connect 29 0 47 0;
#X connect 31 0 47 2;
#X connect 32 0 30 0;
#X connect 33 0 32 0;
#X connect 33 0 49 0;
#X connect 34 0 31 0;
#X connect 34 0 43 0;
#X connect 35 0 46 1;
#X connect 36 0 37 0;
#X connect 37 0 35 0;
#X connect 38 0 39 0;
#X connect 39 0 35 1;
#X connect 40 0 41 0;
#X connect 41 0 35 2;
#X connect 42 0 36 0;
#X connect 42 0 44 0;
#X connect 43 0 42 0;
#X connect 44 0 38 0;
#X connect 44 0 45 0;
#X connect 45 0 40 0;
#X connect 46 0 30 0;
#X connect 47 0 50 0;
#X connect 48 0 46 0;
#X connect 49 0 46 2;
#X connect 50 0 48 0;
#X connect 51 0 29 0;
