#N canvas 708 84 736 798 10;
#X obj 51 46 adc~ 1;
#X obj 52 89 env~;
#X obj 54 135 vu 15 120 empty empty -1 -8 0 10 -66577 -1 1 0;
#X obj 53 110 - 100, f 10;
#X obj 176 556 dac~;
#X obj 405 445 env~;
#X obj 407 491 vu 15 120 empty empty -1 -8 0 10 -66577 -1 1 0;
#X obj 406 466 - 100, f 10;
#X obj 404 421 *~ 1;
#X obj 166 242 *~ 0.99;
#X obj 156 196 *~ 200;
#X obj 90 88 delwrite~ \$0-delay 10000;
#X obj 157 221 delread4~ \$0-delay 10000;
#X obj 161 157 phasor~ 0.2;
#N canvas 0 22 450 278 (subpatch) 0;
#X array array1 400 float 2;
#X coords 0 1 400 -1 500 140 1 0 0;
#X restore 98 652 graph;
#X obj 286 326 tabwrite~ array1;
#X obj 337 250 tgl 15 0 empty empty empty 17 7 0 10 -262144 -1 -1 1
1;
#X obj 50 22 block~;
#X obj 248 487 clip~ -0.9 0.9;
#N canvas 144 84 563 798 secondsound 1;
#X obj 51 46 adc~ 1;
#X obj 52 89 env~;
#X obj 54 135 vu 15 120 empty empty -1 -8 0 10 -66577 -1 1 0;
#X obj 53 110 - 100, f 10;
#X obj 176 556 dac~;
#X obj 405 445 env~;
#X obj 407 491 vu 15 120 empty empty -1 -8 0 10 -66577 -1 1 0;
#X obj 406 466 - 100, f 10;
#X obj 404 421 *~ 1;
#X obj 166 242 *~ 0.99;
#N canvas 0 22 450 278 (subpatch) 0;
#X array array2 400 float 2;
#X coords 0 1 400 -1 500 140 1 0 0;
#X restore 17 620 graph;
#X obj 337 250 tgl 15 0 empty empty empty 17 7 0 10 -262144 -1 -1 1
1;
#X obj 248 488 clip~ -0.9 0.9;
#X obj 50 22 block~;
#X obj 286 326 tabwrite~ array2;
#X obj 51 65 *~ 0.9;
#X obj 321 279 metro 100;
#X obj 272 545 send~ Left;
#X obj 156 196 *~ 100;
#X obj 89 89 delwrite~ \$0-delay2 10000;
#X obj 157 221 delread4~ \$0-delay2 10000;
#X obj 161 157 phasor~ 0.11;
#X obj 355 198 loadbang;
#X obj 161 176 +~ 1;
#X connect 0 0 15 0;
#X connect 1 0 3 0;
#X connect 3 0 2 0;
#X connect 5 0 7 0;
#X connect 7 0 6 0;
#X connect 8 0 5 0;
#X connect 9 0 12 0;
#X connect 11 0 16 0;
#X connect 12 0 8 0;
#X connect 12 0 4 0;
#X connect 12 0 14 0;
#X connect 12 0 17 0;
#X connect 12 0 19 0;
#X connect 15 0 1 0;
#X connect 15 0 19 0;
#X connect 16 0 14 0;
#X connect 18 0 20 0;
#X connect 20 0 9 0;
#X connect 21 0 23 0;
#X connect 22 0 11 0;
#X connect 23 0 18 0;
#X restore 408 76 pd secondsound;
#X obj 51 65 *~ 0.9;
#X obj 320 279 metro 100;
#X obj 245 581 send~ Right;
#N canvas 1088 283 678 498 recording 1;
#X obj 510 140 env~;
#X obj 512 186 vu 15 120 empty empty -1 -8 0 10 -66577 -1 1 0;
#X obj 511 161 - 100, f 10;
#X obj 509 116 *~ 1;
#X obj 424 143 env~;
#X obj 426 189 vu 15 120 empty empty -1 -8 0 10 -66577 -1 1 0;
#X obj 425 164 - 100, f 10;
#X obj 423 119 *~ 1;
#X msg 205 173 start;
#X msg 216 278 stop;
#X obj 205 344 writesf~ 2;
#X msg 16 270 open /Users/rb/foo2.wav;
#X obj 147 26 receive~ Left;
#X obj 271 33 receive~ Right;
#X obj 230 202 t b;
#X obj 217 237 delay 161000;
#X obj 441 358;
#X msg 295 350 \$1;
#X connect 0 0 2 0;
#X connect 2 0 1 0;
#X connect 3 0 0 0;
#X connect 4 0 6 0;
#X connect 6 0 5 0;
#X connect 7 0 4 0;
#X connect 8 0 10 0;
#X connect 8 0 14 0;
#X connect 9 0 10 0;
#X connect 11 0 10 0;
#X connect 12 0 7 0;
#X connect 12 0 10 0;
#X connect 13 0 3 0;
#X connect 13 0 10 1;
#X connect 14 0 15 0;
#X connect 15 0 9 0;
#X restore 408 96 pd recording;
#X obj 414 189 loadbang;
#X obj 161 176 +~ 1;
#X connect 0 0 20 0;
#X connect 1 0 3 0;
#X connect 3 0 2 0;
#X connect 5 0 7 0;
#X connect 7 0 6 0;
#X connect 8 0 5 0;
#X connect 9 0 18 0;
#X connect 10 0 12 0;
#X connect 12 0 9 0;
#X connect 13 0 25 0;
#X connect 16 0 21 0;
#X connect 18 0 8 0;
#X connect 18 0 11 0;
#X connect 18 0 15 0;
#X connect 18 0 4 1;
#X connect 18 0 22 0;
#X connect 20 0 1 0;
#X connect 20 0 11 0;
#X connect 21 0 15 0;
#X connect 24 0 16 0;
#X connect 25 0 10 0;
